/* XPM */
static char *result[] = {
/* columns rows colors chars-per-pixel */
"100 100 52 1 ",
"  c #030404",
". c #060708",
"X c #070809",
"o c #0B0C0D",
"O c #0D0F10",
"+ c #0F1112",
"@ c #121415",
"# c #141718",
"$ c #16191A",
"% c #191C1D",
"& c #1B1F21",
"* c #1E2123",
"= c #212426",
"- c #232629",
"; c #252A2C",
": c #292C2E",
"> c #272C30",
", c #2A2E31",
"< c #2D3235",
"1 c #2F3538",
"2 c #303436",
"3 c #31363A",
"4 c #343A3D",
"5 c #393B3D",
"6 c #373D41",
"7 c #383E43",
"8 c #3B4246",
"9 c #3E4549",
"0 c #444647",
"q c #40474B",
"w c #42494E",
"e c #454D51",
"r c #484F54",
"t c #475054",
"y c #4A5156",
"u c #4D555A",
"i c #4F585D",
"p c #50575C",
"a c #51595E",
"s c #555D62",
"d c #585F65",
"f c #576065",
"g c #596166",
"h c #5C656A",
"j c #5F686E",
"k c #60696F",
"l c #646C73",
"z c #677077",
"x c #687077",
"c c #677078",
"v c #6A737B",
"b c None",
/* pixels */
"bb<#>8898898981*@.-7888888888788888888888888888,+.*<4889988<,>>1687889uhhhhhhhhhd7-oOo.>ee98888>@+bb",
"bb2$-8888888886<%.*4888888888888888888888888881#.&388988888988888889eishhhhhhhhhhdw>$X$0hae9898<$obb",
"bb<$%48888888888:oo;66888888888888888888888884&.#48888888888888889eishhhhhhhhhhhhhdp6$:uhhpw887-@bbb",
"bbb$#388888888884-@O*>38888888888888888888886-.+1988888888888889esshhhhhhhhhhhhhhhhdq$>yghse97:@@bbb",
"bbb%@<88888888888q8=+O*388888888888888888888<$o;8888888889999tyashjhhhhjklkhhhhhdhhhq##7ghgaw5%o%bbb",
"bbb=@;7888888888wafu8*o*38888888888888888871%X&4888899etisffhhhhhhhhhhjcxvckhhhhkhhhu-X>ahhhs8O@-bbb",
"bbb%O>8888888889ughhfu3$#<6888889888888898<%..=888889ifghhhhhhhhhhhhhjvvvvchhhhhdkhhdq#&whhhhu;+=bbb",
"bbb@+<88888899wughhhhhhq-@;48888888888886>#.Oo=88888ihhhhhhhhhhhhhhhjcvvvvlhjkckkhhhhd2@<yghha8%#bbb",
"bb=@;wyeteeeyusghhhhhhhgu2@%,78888888884:#+*>%%78889ighhhhhhhhhhhhhjcvvvvvclzvvvlkhhhhr%X;rhhhu<Obbb",
"bb=*wffffssfghhhhhhhhhhhha0%o=488888883-##:9w-@<8888tfhhhhhhhhhhhjkcvvvvvvvvxvvvxkhhhhs5@@7shhsw=Xbb",
"b,&3shhhhhhhhhhhhhhhhhhhhhgw=O;788863;&%=8uss8$*88889tshhhhhhhghhkvvvvvvvvvvvvvvxkdkhhha3+:phhhu<obb",
"b=%yhhhhhhhhhhhhhhhhhhhhhhkhq%@=;>*&$$;8ufjhhp<@<888889shhhhhhhhkcvvvvvvvvvvvvvvlkhhhhhhr%&uhhgr2@bb",
"b$2dllhhhhhhhhhhhhhhhhhhhhhhu;+Ooo+=<8uhhhhhhg6+*888889ughhhhhhjvvvvvvvvvvvvvvvvlkhhhhhhp:%thhgu2=bb",
"b%rlczhjhhhhhhhhhhhhhhhhhhhls>+o.%<waghhhhhhhh3+*888889shhhhhhhkvvvvvvvvvvvvvvvvkhhhhhhhg4%rhklj8=+b",
"b;sxvvlhhhhhgsssghhhhhhhhhhhh4o@-8uhhhjlkhhhhs<@>88889tghhhhhhjlvvvvvvvvvvvvvvvckhhhhhhhh7%rhlxxp*ob",
"b;dvvvchhhhguwwwyafhhhhhhhhhj8O;eshhhllxxlhhhu:=888899fhhhhhhhhzvvvvvvvvvvvvvvvckhhhhhhhh5&ukxxvd;Ob",
"b%sxvvxkhhha998889yshhhhhhhjh8@3fhjjzvvvvvkhg9*>88889ihhhhhhhhhzvvvvvvvvvvvvvvvlhhhhhhhhh7:pjcvvh,@b",
"b@pxvvxlhhse8888888eudhhhhhhh8@8ghlzvvvvvvlhu**38888ughhhhhhhhhlcvvvvvvvvvvvvvvlhhhhhhhkhq2pjlxcl2%b",
"b%pxvvvljha9888888889yshhhhhh7@0hjzvvvvvvvkf8#;88889fhhhhhhhhhhhzcvvvvvvvvvvvvckhhhhhhhhhq:ujhjld<%b",
"b#rxvvxlhgy98898889888eaghhhg3#whhzvvvvzvlji<$18899fhhhhhhhhhhhhhhzcvvvvvvvvvvckhhhhhhhhhq=uhhhhs:$b",
"bO7kvvckhs98888888888899ushjs>&rhhjjzzzzkhhy>*88899hjhhhhhhhhhhhhhhhkzzcvvvvvvvlhhhhhhhhh9*rhhhhu&Ob",
"bo6dkkhhfu98888888888889qeusu=;shhhhhjhhjjjt**88989hhhhhjhhhhhhhhhhhhhhlcvcvvvckhhhhhhhhhq%qyisfw%%b",
"b@3shhhhsw98888888888888888r8&3shhhhhhhhhhf9&>68889hhjjllljhhhhhhhhhhhhhhlzcvvchhhhhhhkdd9$499wy3=bb",
"b@:uhhhdt988888889888888888q,=whjhhhffsitte6*>8889ijhkcvvvzzjjhhhhhhhhhhhhhlczlhhhhhhhhkkq#38884&=bb",
"b@=uhhfy98888888888888888886&,ihhffiyt99888<$<8889ighlvvvvvvvzlhhhhhhhhhhhhhhjhhhhhhhhhhhq#3884-@=bb",
"b#;phgu98888888988888888888*&9hdute98888886;@>8888ihhzvvvvvvvvzzhhhhhhhhhhhhhhhhhhhhhhhhh8@397;@%bbb",
"b$,afu988888888888888888861&>ihu98888888888*+>8888ighjzvvvvvvvvvclhhhhhhhhhhhhhhhhhhhhhhg7o*4>@%bbbb",
"b%3uyw88888888888888888881&&9ddt88888888886-+*6889uhhjzvvvvvvvvvvvzhhhhhhhhhhhhhhhhhhhhhh8oO,$%2bbbb",
"bb<9988888888888888888881&&6uggt89888888888<+&4888thhhjzvvvvvvvvvvvzhhhhhhhhhhhhhhhhhhhhg5@o%@<bbbbb",
"b%=58888888888888888888>@O<ighgae88888888881+@18889ghhhzvvvvvvvvvvvvkhhhhhhhhhhhhhhhhhhjs8@XX@;bbbbb",
"b%@3888888888888888886*+.*69ufhgt88888888883#X;8989fhhhlvvvvvvvvvvvvzhhhhhhhgghhhhhhhhhhg8@ . bbbbbb",
"b%@=4888888988888887<&+X@18899ast88888888883$X$4889tfhhjvvvvvvvvvvvvzhhhhhhsreephhhhhhhhf4@.o  bbbbb",
"bb$+:88888888888885:$$#o*888899w98888888888<o o:88899ihhhlcvvvvvvvvcljhhhhs98889hjhhhhhhi>..#O  bbbb",
"bb@X*488888888884,%+$&o@3888888898888888888=. .%488889yfhhjlllllllljjhhhhi9888889fhhhhji8$o%**#.bbbb",
"bb$X@1888888885,&+#=:&.%6888888888888888882@+@.o:888889ihhhhhhhhhhhhhhhhf999888899shhjf8*@;188<# bbb",
"bb,%o*88888842=++&:,,=X%48898888888888885<@o@*%o$3888889ifhhhhhhhhhhhfft98898888989ihf9*#<88888<@bbb",
"bbb*X&48882,*@@%-,,,-&.$3888888888888884;@Xo@:5=.*6888889uassfffffssiu9998888888888896*+*8888888;#bb",
"bbb#X+*;,:&Oo&=:,:=&#o o,8888888888884,$oO#O@4t3+o*6888889999999999889988888888883**#+$>668888883&=b",
"bbb   oO##@o#-,,-%+@%*#O*68888888883;&++@%%o&8y8*X+>488888888888888888888888888<*&@#*;16888888888>=b",
"bbb@#**:<<:$O%:=@X%,366*+*38888884*$o+*%oooO:uae8;+@%>134888888888888887888881&OO@*<36888888888884=b",
"bb;*<688883&.#=#X=8paap0*+*3684<*$o$*>4,*+o@8shhse<:*+@%***><3687777766<<<1>*@.O*>6688888888888886=b",
"bb*-4888884*.O$o&0ghkksy3*++%*$o+$*,48884>%@8hhhhft84-oXO+OO+#%*>>;;;*###+OO+$*<388888888888888887:b",
"bb*18888884*Xooo5skhhhhp93;%+@$**1889899e9>+3fhhhhst98:-****%+ .XXXooO#&&&&;1677888888888888888888<b",
"b@-48888888*..X=ykkghhhs988431468888899yaf8@*yhhhhhhayttytyt8;o..&**->6676788888888888888888888887>b",
"b+,88888886& o%7shhhhhhhi9888888888889yghhy:$thhhhhhhfghhghhs8O +<87888888889888888888888898888884;b",
" +188888883# %7ahhhhhhhhfy9888888888889ghhf4$tghhhhhhhhhhhhhf9++;68888888888798888888888888888886;*b",
" +188888892+X,phhhhhhhhhhs9888888888889ihhg9%8shhhhhhhhhhhhhh9@:678888888888978888888888888888881%:b",
" @18888889,o#wfhhhhhhhhhhhy888888888888thhh9$1whhhhhhhhhhhfhs4-488888888888888888888888888888888-=bb",
" +18888888>.;ihhhhhhhhhhhhsw88888888888thhhe%&8yhhhhhhhhfuyy6&<89798888888887978888888888888887<=2bb",
" .<8888888*o6fhhhhhhhhhhhhgsw8888888889uhhhe&#69ufhhhhhfu986$$387988888888889998888888888888883*<bbb",
" .;7888889:+qhhhhhjllvvzhhhhu988888888efhhhe*%689eyafiuw86:$.=8888998889888877799w988888888886;%5bbb",
" .:8889qwy<+whhhhklxxvvvlhhhge8888889yshhhhu;#68889898886:# #1888977878888789wyyaay98888888884&;bbbb",
"b.;7wruusg5+9hhhhjlvvvvvclhhge88889tshhhhhhs8*;13888888<&O..-888qyreee9899eesdljhhfy9888888884%2bbbb",
"b.;wsghhhh4O4fhhhjlvvvvvxhhhfw88889shhhhhhhhs9>-*18841=+  o@<888udddhhsdsdjcvvvvljhft88888888<%2bbbb",
"bo*tghhhhhe%=thhhhkzvvvxzhjhfq8888uhhhhhhhhhhsy8;&43=+o$*$o+188wdhhkcvvvvvvvvvvvljhhu98888898;%bbbbb",
"bb$8ghhhhhf,o<ughhhhllllhjhhgy988wahhhhhkhhhhhi8*#4*oX=8q4#o<88ydhhcvvvvvvvvvvvvxlhhaw898889q==bbbbb",
"bbo,phhhhhh8@O3phhhhhhhhhhhhhfsiushhhlzzclhhha98*@<@o:tggu*@388uhhjcvvvvvvvvvvvvvlhhsyq88qeia;=0bbbb",
"bbb=uhhhhhhy;oO2uhhhhhhhhhhhhhhhhkzcvvvvvlhhae97*o$@4uhhha=@388uhhlcvvvvvvvvvvvvvlhhhsirypdhh7*7bbbb",
"bbb$9hhhhhhh6$ O7gjhhhhghfhhhhhkzcvvvvvvckhst983$o$8fhhhha,%488udjcvvvvvvvvvvvvvvxhhhhhddhhhhi<;8bbb",
"bbbO2ahhhhhhu;. =yhggsaueeufhhlcvvvvvvvckhst997*oO:ahhhhhh8=888uhlcvvvxvvvvvvvvvvxljhhhhjhhhhhp7==bb",
"bbb@5fhhhhhhhq$ $8uyew9988wahhlvvvvvzljhfuw9883#.*8ghhhhhhe*388tsjlvvvvvvvvvvvvvvxlhhhhhhhhhdkkkw%=b",
"bbb=qklkhhhhha2oo<998988889ihhlxvclhhhfie89884*.*qahhhlhhht%;88wdhlxvvvvvvvvvvvvvxlhhhhhhhhklxxvlq%-",
"bbb;wxvzkhhhhhy#o>988888889yghjlzlhhaue988888:o#8fhhllxxlhe%*88wshkcvvvvvvvvvvvvvvcjhhhhhhlxvvvvxk2@",
"bb@<hvvvkhhhhhu$O1988888888efhhhhfay98888888<+.1shhkcvvxlh9@*888ydhlvvvvvvvvvvvvvvljhhhhkxxvvvvvvxw@",
"bb*ylvvvlhhhhhp%o,q888888889ihgsie988888886:@.&8djjlvvvvlh8+*8889ihhhjlvvvvvvvvvvvvlhjklxvvvvvvvvvu%",
"b55kxvvxkhhhhhp&o,8888888888esie9888888881*+oO>9phlvvvvxhh9&*6889tshhhhlvvvvvvvvvvckjlxxvvvvvvvvvvp-",
"y7axvvvvlhhhhha:O;88888888888w98888888881%+#@&3qihkxvvvlhhu;*88889ihhhhjccvvvvvvcvllcvvvvvvvvvvvvvp-",
"05gxvvvvlhhhhhhq$&3888888888888888888861&#:<#>79uhjxvvxlhhf1*68888eshhhhhlvvvvvlkkjlvvvvvvvvvvvvvxp&",
"57hvvvvvkkhhhhhy=o-8888888888888888886>%%68=#<89uhjcvvvlhhh9$<88889uhhhhhhcvvvcjhjhlvvvvvvvvvvvvvvp&",
"b4dxvvvvkhhhhhhu= o:88888888888888873=@=9i8#*688uhhlvvvlhhht&*388889ahhhhhhllljhhhhjcvvvvvvvvvvvvvp=",
"b>dcvvvxkhhhhhhu-  $188888888888886<&$<yhs<#1788yhhlvvvvjhhu*+;89888efhhhhhhhhhhhhhhkllcvvvvvvvvvxu&",
"b=pxvvxlhhhhhhhp<  X;688888888886<*@*8phhy;*6788tfhlxvvvcjhf8+#388889ughhhhhhhhhhhhhhjjjkkcvvvvvxlq%",
"b%rlzzljhhhhhhht=. .#37888888871-+O;edhhhr&-7888eshjlvvvvzhht;.*688889ighhhhhhhhhhhhhhhhhhjhjjkllh3%",
"b@qhkhhhhhhhhhhq@XOXo=47888887<%X&6uhjhhhr-;78889ighhzvvvvlhs8@@1888889ighhhhhhhhhhhhhhhhhhhhhhhhu=@",
"b@5shhhhhhhhhha8oO*%@O%:6111<*+O:qshhhhhhy->78889tshhhcvvvzhhe*.*6888889udghhhhhhhhhdssiisuiisdhhy=@",
"bo;ihhhhhhhhhha<X$-;%o.O%&&&+X%<rshhhhhhhy->788889yhhhzcvvchha6o@<88888889uadggdsuutewww9999qweeuq&%",
"b+*eghggghhhhgt*O=::%@@$@OOO&<eshhhhhhhhhr-=7788899fhhhcvvchhht;o*68888888999te999988888888878898:%:",
"bo@3etttyshhhf8@+=::*@%3q778esjklljhhhhhhs,&1888889ughhhzczhhhh9&+<788888888898888978898889888887=*b",
"bb@=88889eahhf8%+&::=oX3shdhjlcvvvxljhhhjdq=,888888efhhhhhhhhhhf<o&688888888888897798888888888887;;b",
"bbo%288888wahgu5@+=2=oX,shhjcvvvvvvxkhhhhhp3-4888889ihhhhhhhhhhhe&.*68888888888888888888888888887;:b",
"bb@+>888889wuhgy;o%:=@o:akklvvvvvvvvljhhhhsw-;688888eghhhhhhhhhhi6#+>8888888888888888888888898888-;b",
"bbbo*4889888wphf0@+%=o#5fklxvvvvvvvvkhhhhhhi1$,888889shhhhhhhhhhft<#@<888888888888888888888888887=-b",
"bbb@$38889888wagp:o@o.;phklxvvvvvvxlhhhhhhgp1X&488888ihhhhhhhhhhhs9>X@188888888888888888888888884**b",
"bbbb+:68888888qua5O..%8hhhlxvvvvvvckhhhhhhaw<O#188888eshhhhghhhsau91@.&69888888888888888888888883%%b",
"bbbb+$>68888888qy7@ %8shhhlxvvvvvckjhhhhhse84*#<888889ysassiiute9986;oo*8888888888888888888888884$@b",
"bbbbbX$38888888805@@8dhhhhhzvvvvlhhhhhhhgu988>#;788889999ww9998898886*.+:888888888988888888888883$@b",
"bbbbb .&488888887:O>ahhhhhhlxxvlhhhhhhhgyq887>@-8888888888888888888881#.#18888888888888888888888,@@b",
"bbbbb  o*48888886=#qhhhhhhhhkklkhhhhhhhaq8888;@-6888888888888888998888,+.#1888888888888888888888:@@b",
"bbbbb   .=5588887=%rhhhhhhhhhhhhhhhhhhs988887;O*78888888888888889988888>O $<88888888888888888888=@bb",
"bbbbb.o@Oo&278888;%rhghhhhhhhhhhhhhhhhu988886*X*788888888888888888888886;+.@:4888888888888888886&@bb",
"bbbbX %;*OX%<7888;@wghhhhhhhhhhhhhhhhfe988887;o&<678888888888898888888888<%X+;488888887767888881%%bb",
"bbbboX=::=O %<888;@qshhhhhhhhhhhhhhhhfe8887766#.@*>68888888888888888888888:o o*17888886;***><881%-bb",
"bbbb#O%:<:=O.*488:#whhhhhhhhhhhhgfffau966>>686<&oX@*1888888888888888888882&o  .$-18884-@@%$@#88>%:bb",
"bbbb%O@%;2:=OX*47;%yhhghgfffaauyte99996>#o+;6861*&@+*1667888888433668888:###%@oXX#*33=%-344>&@#*&bbb",
"bbbbbX.O=,,:%.o;4**wuuttteww9999888886>$@&#+*16886<*#$>6788886<&#$&*>31*##-:::-%+.X$#@:788bb;66bbbbb",
"bbbbbX.X%;::%. o&+#288888888888888883*@$><;$O#*>161;@.$<66684:%Xoo..o@&+%:,,2,<>-%.. +:bb8bbbbbbbbbb",
"bbbbbbX o+$$O     +<477888888888641-$O$bbbbb@XX@$%$@.  @=>1<=@@@bbb.   +:,,2:2:2:%O.Xobbbbbbbbbbbbbb",
"bbbbbbbbb .       #<54666641<>:--*#@$$bbbbbbbb+@@&%@X    o@@+obbbbbbbb .%=--:::=%@@&%bbbbbbbbbbbbbbb",
"bbbbbbbbbbbbbbbbb @;=====**#o....O$bbbbbbbbbbbbbbbbbbbbb   bbbbbbbbbbbbb.#*%#%#@+O%bbbbbbbbbbbbbbbbb",
"bbbbbbbbbbbbbbbbbbb%@@oX....  bbbbbbbbbbbbbbbbbbbbbbbbbbbbbbbbbbbbbbbbbbbb:$.. obbbbbbbbbbbbbbbbbbbb"
};
