/* XPM */
static char *result[] = {
/* columns rows colors chars-per-pixel */
"100 100 50 1 ",
"  c #040405",
". c #060708",
"X c #070809",
"o c #0B0C0D",
"O c #0D0F10",
"+ c #0F1112",
"@ c #121415",
"# c #141718",
"$ c #16191B",
"% c #191C1D",
"& c #1B1F21",
"* c #1E2123",
"= c #212426",
"- c #232629",
"; c #252A2C",
": c #292C2E",
"> c #2A2E31",
", c #2D3235",
"< c #2F3538",
"1 c #303436",
"2 c #31363A",
"3 c #343A3D",
"4 c #373D41",
"5 c #383F43",
"6 c #3B4246",
"7 c #3E4549",
"8 c #444647",
"9 c #40474B",
"0 c #42494D",
"q c #454D51",
"w c #484F54",
"e c #475054",
"r c #4A5156",
"t c #4D555A",
"y c #4F585D",
"u c #50575C",
"i c #51595E",
"p c #555D62",
"a c #585F65",
"s c #576065",
"d c #596166",
"f c #5C656A",
"g c #5F686E",
"h c #60696F",
"j c #646C73",
"k c #677077",
"l c #687077",
"z c #677078",
"x c #6A737B",
"c c None",
/* pixels */
"ccco:666676766<*@o-5666666665566666666666666666:+.*,2477774,,;;<566567efffffffffp5*OOo >rq76666:#Occ",
"cccX-6666666665,#.*366666666666666666666666666<$X&367666666777666667qyafffffffffha0>#o#9diq7677,#occ",
"cccX*46666666665;Oo;45666666666666666666666663& #46666666666666667qyafffffffffffffau4#:uffi8765=@ccc",
"ccco%266666666663-@O*;26666666666666666666665-.+,666666666666677qyaffffffffffffffffa9#>wdfpq65:@@ccc",
"ccc#@;5666666666686=OO*366666666666666666666,#o;5666666677777qrpafffffffhjjfffffffff9@#5sfdiq2%O&ccc",
"ccc=o=46666666660ist5*O*3566666666666666665<%X%3666677qetpdpfdffffffffhzzxzhffffafffu-X>uhffi6O@-ccc",
"cccco@2666666667tdffft2##>5666666666666675,%.X=666667ysfdffffffffffffjxxxxzfffffhfffa9#&qffdhr-+-ccc",
"cccc@o16666767qtsfffffs9-@;46666666666664>#XoO;66667yfffffffffffffffhzxxxxjffhjjhffffa1@>rdhdp6%#ccc",
"cccc@o3qqqqqetpffffffffft1##,36666666653;#@=>#*46667yffffffffffffffhzxxxxxzjzxxxjhffffw*X-tfddt1Occc",
"ccccc#4ppaasdffffffffffffi7*o-366666663-##;60-@>66667sffffffffffffjzzxxxxxxxxxxxlhafffp3@+3phda8*Xcc",
"ccccc%3pfffffffffffffffffff0=o;466653;&%-6upi8%&66667tsffffffffffhxxxxxxxxxxxxxxlhhffffi2O>uhaht,occ",
"ccccc@1pffffffffffffffffffff8&#=;:*&##;6tdfffu>#>666677pffffffffhzxxxxxxxxxxxxxxjhffffffw&&thdaw1@cc",
"ccccc@4dfffffffffffffffffffgt;+Ooo+*,6yffffffs3@*666667tfffffffgzxxxxxxxxxxxxxxxjhffffffu:$rhhhr2=cc",
"cccc #qdfffffffffffffffffffgp>OoX$,0idffffffhs2o*666667yfffffffhxxxxxxxxxxxxxxxxhfffffffd3&rahhh6-Oc",
"cccc.-yfffffspppdffffffffffff3o@;6tfffgfhffffi1#>66677esffffffgjxxxxxxxxxxxxxxzzhffffffff6%rhhllt=oc",
"ccccO6fgfffstq07eidffffffffff6O;qpfffjzxljhfft;-666677sfffffffgjxxxxxxxxxxxxxxxzhafffffhd3&rhjxxa;oc",
"ccco-ujhfffy966679rpfffffffgf7@3pfggkxxxxxgfs6*,66667yfffffffffkxxxxxxxxxxxxxxxjfffffffff5;ujjxxh>#c",
"ccc#8jzjffaq6666666qtafffffff6@6fghxxxxxxxjft;%26666ydfffffffffjxxxxxxxxxxxxxxxjfffffffhf81pfjzzh2%c",
"cc*1axzjffi7666666667rpffffff4@7ffkxxxxxxxhs6@-67667sfffffffffffjzzxxxxxxxxxxxxhfffffffff9;uffhjf1%c",
"cc-qzxxjffe76666666667qidffgs2#0fgkxxxxxxjgy,$<6677pfffffffffffffgjkxxxxxxxxxxzhfffffffff9-tffffi;#c",
"cc=izzjhfp06676666666677raffa>&qfffgjkkjhfft>*66667fgfffffffffffffgghjkkxxxxxxxhfffffffff9*tffffu%Oc",
"cc*ihhhfst666666666666678qtat=;yfffffgfgfgfe**66767ffffffffffffffffffffjzxxxxxzhfffffffhf5&7ryaa0%%c",
"cc&pffffp066666666666666667w6&3affffffffffs7%>46667ffggjjjggffffffffffffgjjxxzkgffffffaha7%277qe2=cc",
"cc=ifffae7666666666666666666>=qfffffdspyrr76*>6667ygfgzxxxkjjffffffffffffffjkkgfffffffffh7#26563&=cc",
"cc=iffar76666666666666666664&>yffssyt777666,$,6666tfgjxxxxxxxkjgfffffffffffffffffffffffff8#2664-@-cc",
"cc%ufdt76666666666666666666*&7aaye777777664;@>6666yffjxxxxxxxxxjgffffffffffffffffffffffff6@165;@%ccc",
"cc#tdt96666666666666666664<&>yft76666677664-+>4666ydfjxxxxxxxxxxkjgffffffffffffffffffffff5o=3>@%cccc",
"c O6e06666666666666666666<&&7aaq77666667664-+*4667tfffjxxxxxxxxxxzjgfffffffffffffffffffff5oO*#$,cccc",
"c o>66666666666666666676,&&4tdae66666666666,+&3666efffgkxxxxxxxxxxxkfffffffffffffffffffff3OXX#,ccccc",
"ccX*4666666666666666664>#O,rddfi76666666666<+@<6667ffffkxxxxxxxxxxxxjfffffffffffffffffffp6#. @-ccccc",
"ccX%566666666766666664*+.*5qyafde76666666662#o;6777sffgjxxxxxxxxxxxxjfffffffdffffffffffhd6#   cccccc",
"cco%4666666666666665,&+X@,6677yp776666666662$ $37777pffgkxxxxxxxxxxxkffffffpwqqiffffffffd4o .  ccccc",
"ccO%466666666666683:#%#o-666667077666666666>O o:66670tsfgjkxxxxkxxxxjfffffp76667ffffffffy> .@+  cccc",
"cc@%3666666666663:%+%%o@<666676677666666665-.  %276667rsfffkkjjjjjjggffffy776667epfgffgi6#o&**@ cccc",
"cc$%46666666683,%@@=;*X%3666666676666666661#O#XO:666667ysgfffffffffffffsp777666677ysffs7*#-,64,# ccc",
"c;%$366666663>=+@%:,:=.%36676666766666665>@o#*%X$2666677ysfffffffffffsst76776666667yfs7*#,66676,@ccc",
"c%+$3446662>&@@%->,:;%.#3666666666666662:+Xo+>4*X*4666667tysssspssypyt7776666666666674&@;6666666-#cc",
"c. O**-:::&OO&=:::=&#o O:6666666666662>$oO#O#3e2+o-366667777777777777776666666664,;*$+#>446666663&=c",
"c   oXo+##@o@-::-%+@$*#o*26666666662;%@O+%%X&7e6*XO;366666666666666666666666664,*&@#*;,4646666666>=c",
"c .*=*=>>,:$O*:=@X%>244-+*36666662*#O@*$OooO>rpe6;@@$;<3364666666666666566666<&+o#*;44676666666663=c",
"c +,646666<&.#=#X=5uiiu8*+*<463,*$+@*><>*+o@6sfdpq,;*++%**;;><366555544,,,<>*@XO*>4466666666666664=c",
"c %36666663*XO%X&8ahhhar<*++&*#++$*<46663>%@6dfffse63-O.O+oo+#%*;;;;;&##@+OO@#*,446666666666666664;c",
"c *46666663=Xooo3ihdfdht7<-%+@$&*<46767777;+3pffffse76,=;-**$+XXXXXoOO#%&&&;<455666666666666666666,c",
"c ;66666666*.XX=rhhhfhhi0663<<347666667tsp6#*tffffffireee0ee6;o .&**->4455556666666666666666666664>c",
"c.*66666663% X%5pffffffdt7666666666667tsgfr;%effffffffsddfffs6o +,56666666667666666666666666666662;c",
"c.*66666663# $6iffffffdhst7666666666667sffp4%qdffffffffffffff7OO;46666666666576666666666666666664;=c",
"c.*36666671+o>uffffffffffp7666666666667pffs7%6pdffffffffffffs8#:456666666666755766666666666666662%:c",
"c.#<666667>O#8sfffffffffffe6666666666667fff7%,qsffffffffffsfa3=366666666666657756666666666666666=-cc",
"co@,666666;X;yffffffffffffp066766666666efffe$&6tffffffffstrr4%>66666666666667577666666666666664,=1cc",
"cOo*666666*o4sfffffffhhfffdi76666666667tfffq&#47rsfffffst773#$366666666666665775666666666666662*,ccc",
"ccX$366667:+9ffffffhjxxjgfffy766666666qsfffq*$467qtipir064>#.=66576767666666755770766666666666;%3ccc",
"cco@<6790e,+0ffffhjxxxxxjfffsq6666677epfffft;$46666777664:#.#26675756566665650rriie76666666663*-cccc",
"ccOo:qrtpd2+7ffffjjxxxxxkhffdw66667qpdfffffp6&;<<666666,&o..-6669rrqqq6970qrpajjgfst7666666663%1cccc",
"cc#o>tffff5O3sffffjxxxxxxhffs866660pffffffffa8:**,664,=+. o@,667taaaffaapahjzxxzjffsq66666666<%1cccc",
"ccc.*effffq%=rffffjjxxxljhffs76666rffffffffffat6;%6<=@o#&#o+,660pffjzxxzzxxxxxxxkgfft76666664:%ccccc",
"ccco+9ffffs:O>udffffhjjjfffffe7760iffffggffffdt6-#<*oX=683#O,66eafhjzxxxxxxxxxxxxgffi06766674==ccccc",
"cccoO9fffff5#+2ufffffffffffffspiypffgjjkzjfffyq4*@,@O:esdt*+366rffhzxxxxxxxxxxxxxjffae9669qrr;=8cccc",
"ccco@0ffffft;X+1uffffffffffffffffgkzxxxxxjffpq64*O@%3tfffp=#366tafjzxxzxxxxxxxxxxjfffptwwpafa5&8cccc",
"cccX*rfffffd5@ O3afffffffsfffffhjxxxxxxxkgfsq76<#o%4iffffi>$377tfhzxxxxxxxxxxxxxxjfffffdaffffy,-8ccc",
"ccc.%wfffffft:. =tffdpitqqtsffhkxxxxxxxxjfpe666-oO:ifffffs8*666rfhzxxxxxxxxxxxxxxxjfffffffffffy4=&cc",
"ccc O7ffffffd8$X#6teq097660iffjxxxzzkjgfst07672#X*7sffffffq*<66eahjxxxxxxxxxxxxxxxjfffffffffffhh0&=c",
"ccc @ehgfffffp2Xo,776766667yffjxxzjjffst067663*.*9ifffhhffe&;66qpfjzxxxxxxxxxxxxxzjffffffahhjllxj8#;",
"cc  :fkkgfffffr@o>766666667effgjkhfditq766666;o#7sffhkzzjfe%*667pfhjxxxxxxxxxxxxxxjhfffffhjzzxxxxf1#",
"cc +0kxxjffffft$O<766666666qsffffspe76666666,+X,iffhkxxzjf7+*667rafjxxxxxxxxxxxxxxlhffffhlxxxxxxxl0@",
"cc ;fxxxhhffffu%O>7666666667ydfpyq766666664:@ &6affzxxxxjs6@*6667yfffhjxxxxxxxxxxxxhffjjzxxxxxxxxxt%",
"ccO4zxxxhfffffu*o:6666666666qpyq666666665<*@oO>7pfhxxxxzgf7%*6666esfffgjxxxxxxxxxxzjhjzxxxxxxxxxxxu-",
"co%wzxxxjhffffi:O=6666666666607666666666<&+#@&39tfhzxxxzfft;*66667ysfffgjxxxxxxzzzjjjxxxxxxxxxxxxxu-",
"c#=axxxxjfffffs8$&366666666666666666665<&#;,#;57tfhzxxzjfgs<*36666epffffhjxxxxxjjjhjxxxxxxxxxxxxxxu&",
"c#;hxxxxjhffhdft=O-6666666666666666664>$$46=#,67uffjxxxjfff6%>66667tsffffhjxxxjhfffjxxxxxxxxxxxxxxt&",
"X#6jxxxxhdffdhdr* o:66666666666666663*@-9u6#=466yffjxxxjfffq&*266667pfffffhhjjhffffhzxxxxxxxxxxxxxy*",
".%pzxxxlhdffffft:  #<66666666666664>&#>rfp,$,566rffjxxxzggft-O;66666qsffffffffffffffhjjxxxxxxxxxxxt&",
".*axxxljhffffffi>  .;466666666664,*#*6pffr;&4566wdfjxxxxkgfp6+#<66667tdfffffffffffffffjfjjjzxxxxxj8%",
" oulzjjffffffffr-. .#1666666665<*@O;qafffr**5666qaffjzxxxkgfe;.*476667yfffffffffffffffffffffhhjjjf2#",
"c@2agfffffffffs0@XOXo=36666655,$.&4tffffft*;56667ysfgjxxxxhfp6+#<666667tdffffffffffffffffffffffffy-#",
"c@#wffffffffffi6oo*%@O%;44,<<*@O;0pffffffr->57657eaffgkxxxjgsq*.*5666667epffffffffffappyyuuyupaffe-#",
"cX :pfffffffffi,X#;-%o.o$&&&+X$,rafffffffr*;756667efffjzxzkgfp4O@,6666666qrypaaapyrqqqq9697997qqr8%%",
"cc #0dddfffffde*O*>:%###@OO+&,0iafffffffft-*5576670pffgkxxkffsr;X*4666666677qqq077766666666666666:%:",
"cccO,qqqtpfffa7@@=>:&@#38446qafjjjjffffffi,&<666666tfffgkzjfffs7$+>666666666656666666667676666664=*c",
"cccc&>367qidfs6%O&::=oo<pffahjxxxxzjhffffa7&,566666qpfffggffffgs<o&466666666666656666666666666664;;c",
"cccc%%<6660ifdi2@+=1-o.>pffhzxxxxxxzhfffffy4*4666667yfffffffffffq*.*56666666666666666666666666666;;c",
"ccccc$;36670ysfe-o%:-@X:phhjxxxxxxxxjfffffa9;;466666qsffffffffffp4#@>4666666666666666766666666664;;c",
"ccccc+;676660yfs8#O&=o#3phjlxxxxxxxxhffffffy,#,566667pffffffffffs7,$@,666666666666666666666666666=-c",
"ccccc#*6676677psu:o+@ -tfhhxxxxxxxxjfffffffy<o&466666tffffffffgffp7;X#<66666666666666666666666663**c",
"ccccc#*66666677ti4O. #8ffhjlxxxxxxzhfffffap0,O@,66666qsffffsffspit7<# *47666666666666666666666662%%c",
"cccc$&<666666667t5@ %8pfffjxxxxxxzgffffffaq63*#,666667tipspyyreq7766;oo*6666666666666666666666663$@c",
"cccc+;666666666681@#6pffffhjxxxxjgffffffdr765>#>666667777777777676664* +;66666666666666666667666<#@c",
"ccc@%266666666666:+:iffffffjjxxlfffffffsr7766>@;476666666676666666666<#X#<6766666666666666666666,#+c",
"cc@O*666666666663-#8ffffffffhhhhffffffgy76665:+*4666666666666666676666,+ #,666666666666666666666;@@c",
"ccO#<666666666664=%wffffffffffffffffffp766665;+*66666666666666667766666;+ #,66666666666666666664=@cc",
"cc+=4666666666666;%qdfffffffffffffffffy766664*X*466666676666666666666674-O.#;3666666666666666664%@cc",
"c+@<6666666666676;#0fdffffffffffffgffs7766665;o&,466666666666666666666666,&.+-36766666666666666<%%cc",
"c+%46666666666666;@7sffffffffffffffgfie766666<$ +*:46666666666666666666666>o O*<466666666666666<%-cc",
"c+*36666666666666;#0fffffffffffffsssyt76666664,&oX@*<666666666666666666661%o  X#*<6766666666666:%;cc",
"cO&66666666666666;&rfffdfdppiitet77777766666664<*&#+*,366666666666666666>@.XoOo.o@*466666666664*%ccc",
"c+%36666666666664**qiteqe0099777766676666666666664,*#$;4466666666666654*O. .#--&+ X$,467666666*&cccc",
"c@%3666666654433<@#487766766666666666666666667666664*+$,44666666666664*+%;%.@=;;;&oX+*,466764;++cccc",
"c##23<<,<,,>**&&$.#<76666666666666666666666666666666;Oo#-><466666666<&@;7s7,#+#*-;=@oo@-1333;@@ccccc",
"co.#$++ooOoXOo    &47667666666666666666666666666762<*X   o%*,<23444;@#4yfgsy6>$+#=;;&o.O+@@$oo@ccccc",
"c   oOo++++@++    *666666666666666666666666666664;*o.++O.  .+#%***+o@;tfgfffdt4*O@*;:%o  @@@o  occcc",
"c%@o*;>,,,,,,:$+XX;66666666666666666666666666666:+Xo%;>>;*+.. .o#%&*46edffffffp7:+X$*&Xo=:11-O @=ccc"
};
