/* XPM */
static char *result[] = {
/* columns rows colors chars-per-pixel */
"100 100 49 1 ",
"  c #040505",
". c #060708",
"X c #070809",
"o c #0A0C0D",
"O c #0D0F10",
"+ c #0F1112",
"@ c #121415",
"# c #141718",
"$ c #16191B",
"% c #191C1E",
"& c #1B1F21",
"* c #1E2124",
"= c #212426",
"- c #232629",
"; c #252A2C",
": c #282C2E",
"> c #2A2E31",
", c #2D3235",
"< c #2F3538",
"1 c #303537",
"2 c #31363A",
"3 c #343A3D",
"4 c #373D41",
"5 c #383E43",
"6 c #3B4246",
"7 c #3E4549",
"8 c #40474B",
"9 c #42494D",
"0 c #454D51",
"q c #484F54",
"w c #475054",
"e c #4A5156",
"r c #4D555A",
"t c #4F585D",
"y c #50575C",
"u c #51595E",
"i c #555D62",
"p c #585F65",
"a c #576065",
"s c #596166",
"d c #5C656A",
"f c #5F686E",
"g c #60696F",
"h c #646C73",
"j c #677077",
"k c #687077",
"l c #677078",
"z c #6A737B",
"x c None",
/* pixels */
"66766666770q:.oOo=5uggddddsdse765674>:>><4677762,*.+>6666666666666666666666666665-X#*<667676676:oxxx",
"7666667670ps7$X$:9pgdsdddddddpt0766557777666666762%X%,666666666666666666666666663*X$>5666666666;Xxxx",
"666677678ysdr:$4ypddddddddddddppi076666666666666663$X%26666666666666666666666653;oo:66666666663*Xxxx",
"666666660idse:$7sddddddddddgddddspiq766566666666666<+o*66666666666666666666661:=o@;366666666662%oxxx",
"66666670usds5$#8dddddddddhhhdddddddsieq0777666676666*+#,666666666666666666663&o+-5866666666666;@#xxx",
"666679eidddu:.-rdddsddsdghzkhgddddddddspauatew7766663*X%,6666666666666666662*o=3rpi96666666663*o=xxx",
"6790eisdddd9%#8sdddddddddkzzzkhdddddddddddddsst766666*oX$>6666666666666665>$$2ysddse8666666662#oxxxx",
"eripdddddsq,#2iddddghhhfdhzzzzlgddddddddddddddde76666*+oX#;66666666666653;@-9sdgdddsr976666661o@xxxx",
"ddddddddde-X%egdddfhzzzjjzzzzzzzfddddddddddddddt76666&$>*@#;66666666665>$#1edddddddddurw9900q2+Oxxxx",
"gggdddddp5+@3sddddflzzzzzzzzzzzzlfddddddddddddaw6666,+;97;##*366666663-o&7udddddddddddddspisu6#xxxxx",
"zkggddddy:o2udddddflzzzzzzzzzzzzzlffdddddddddu076663&#7uar6*$*;236665;+*9ddddddddddddddddddda2%xxxxx",
"zzggdddge*&qddddddfjzzzzzzzzzzzzzzlfdddddddsu076666,@,udddar7;##%=:;=@%8ddddddddddddddddddddi,#xxxxx",
"zzzkggdde$:ydddddddhzzzzzzzzzzzzzzzldddddddde766666*+3dddddfdr6,=+ooo+;rgddddddddddddddddddda3@xxxxx",
"zzzzkggde%3sdddddddhzzzzzzzzzzzzzzzlhdddddddu766666-O2adddddddat91$oo+,ufdddddddddddddddddddd0#.xxxx",
"zzzzzzgge%6ddddddddfzzzzzzzzzzzzlzzzhdddddddse76666>#<adddddfdddsy6;@o2ddddddddddddsiiisdddddu;Xxxxx",
"zzzzzzkge&3sgddddddfzzzzzzzzzzzzlzzzlddddddddp066663*:edddjjzjhfgdu9:+7fdddddddddsye989rsddddd6oxxxx",
"zzzzzzkgu:6pgpgsdddggzzzzzzzzzzzzzzzjdddddddddi76666>*6sdfzzzzzlgddi3@6gdddddddsie766677ysddghy-oxxx",
"zzzkzkhgu,8gsgsgddsggzzzzzzzzzzzzzzzhdddddddddde76663%;edhzzzzzzzhdd6@6dddddddst07666666qpddhzh8$xxx",
"kgggggddy:8dgsgsddddgzzzzzzzzzzzzzlhdddddddddddse7666;#6shlzzzzzzjgs6@5ddddddie8666666668yddhzzs1&xx",
"gdggdddgq=8dgpsgddddgzzzzzzzzzzzjjfdddddddddddddt7666<$,tdhlzzzzzhdd8$2sgddsu066666667767epdhkzj0-xx",
"ddddddddq=8dddddddddgkzzzzzzzjjgdddddddddddddddda96673*:eddhljjhhdddq&>pdspe96766666666669isfjlju=xx",
"dddddire8%8sddddddddgzzzzjljfddddddddddddddddddda07666;*edddffddddddy-=tsr9866666666666667esddgfu=xx",
"ddsir9872%7dddddddddgkzzjjgddddddddddddddfhhhfddde6666;%0sdaddddddddp3&7w76666666666666666qiddddu=xx",
"dsu076661#8dgddddddddgkkhfdddddddddddddhjjzzzlfdde7666,*30eetusdddddd9*>7666666666666666666qadddu=xx",
"sr9766672$7dddddddddddddddddddddddddffjlzzzzzzhddr6666,&,466790euaddde>&46666666666666666666eaddu=xx",
"t8666666<#7sdddddddddddddddddddddddfjjzzzzzzzzlddr7664>@:466666777wtpd7&*46666666666666666667rddy%xx",
"86666664*O6sgdddddddddddddddddddddhjzzzzzzzzzzhddr7664>+=46666666677edt>&<66666666666666666667rae#xx",
"6666666>Oo5sdddddddddddddddddddddjlzzzzzzzzzzzfddr6664*+;46666666667qpp7&&<67666666666666666667e6O x",
"6666674&o+3sddddddddddddddddddddzzzzzzzzzzzzlfddsw7662*+>66666766657qidt2$&<66666666666666666666>X x",
"666664*XX#6pdddddddddddddddddddgzzzzzzzzzzzzlddds0666,@+<66666666677udddr>+@>6666666666666666666=Xxx",
"66664-X  #6pdddddddddddsdddddddjzzzzzzzzzzzzfdddu7676;X#266666666670ddar04* +*266666666666666666%Xxx",
"6663*oXO @4pdddddddsu09waddddddjzzzzzzzzzzzhdddiw7662$ %<66666666660ir7766<#X+*,5666666666666663%oxx",
"664*oX@#XX>rddddddds76667idddddhzzzzzzzzjjhddaew6666:O O,666666666670776666;O###;366666666666665$Oxx",
"64*XX***$o#6idddddie766677idddddhhhhhhhhjfddae766663$   ;366666666666666666<@o%%+%>3666666666665%#xx",
"4&Xo*244<;#*6addat777766777iddddddddddddddddr776666;oX#+#,666666666666666663$X*:=#+%,36666666663%$xx",
"@X#>466666<$*7adt76667666767riddddddddddddat7776662%o$*#X#>46666666666666663$o=>>:&@+=1366666663$%:x",
"X&<46666664>@*4764666666666677tuiiaaaaiiate7666663*o*6,+oX+;3666666666666662#.%;:1:=%@@*:3665631$@$x",
">46666666644;#O#*;<466666666667666777777777766666*X+2w3++#+o$>2666666666666>O.+#%=:::=%o+&;>---*O  x",
"6666666666664,;*##&*<466666666666666667766666662*+X*6e7*X%$#O+&;<6666666662%X#*$@+%:::;#o@@#+oXo  .x",
"6666666666666664>*#o+&<46666666666666666655332:$##;6wte>+ooo%*+O#-16666663*#;332:%o@=:&O$:,,:=*-=  x",
"666666666666666644>&OX@*>,,,<4444466551>;;**%++&:,qusds3@o@&,1:*++$*,334<*+*8ruiy6*o#=#o&3553555,+ x",
"66666666666666666644>*$+OO+#@#*;;;;;*%#+oOOOXo-56qsddgs8@$,36563<*$++$*%++*2eddddd9%.%O.*37768673% x",
"66666666666666666666644<;&&&&+O+ooXX  +$**;;-,57wadddds2+:907676631;%###%;27tdddddp4Ooo.=35566664* x",
"666666666666666666666666555544>***$X +:6009wweeusddddde=#6uue876666662<<2669adddddde=...=55783666; x",
"6666666666666666666666666666576566,+ O6adddsssddddddddq$;rddse6666666666667tdddddddp5%. %35585866: x",
"66666666666666666666666666667576666*+O7sdddddddddddddd9%2idda9666666666666raddddddddu5% $18858384= x",
"666666666666666666666666666666666663;#7adddddddddddddu8%7sddu7666666666667iddddddddddy1o@18558384& x",
"6666666666666666666666666666666666664*4adadddddddddds9,%9sdd0666666666666eadddddddddds8@o:858583<$Xx",
"6666666666666666757666666666575666666,&3eersdddddddse6%&0ddd0756666666669iddddddddddddu-X;766666,+ox",
"66666666666666665757666666667576666662$#378esddddssr75#%0dddt76666666669uddddfdddddddds3o=666666*oox",
"66666666666666665777765666667775666666-X#>569ruuir9765%*wsdda0766666667radddjjljggddddd9+;766663%oxx",
"666667666666666670iieq06665657556666661# #:36778676663$;rddddie76666669ddddjzzzzkggdddd9@,w97761+oxx",
"6666666666666667rpdfghpie07777000ee8665;o o*,36766511;&6addddddu9766669dddfjzzzzzkgddds8+2saye9:o+xx",
"6666667766666677pddgzzzzhdpppppfsssy866>+o  +=13551=*:7idddddddda966678addfjzzzzzhgddda2+3ddgsy>o$xx",
"777667776666767tddflzzzzzzzzlzzzgdsu966>+o$*#o@=14%;6eddddddddddde66667sddfjzzzjkgdddde=%9ddsde&Xxxx",
"aait77777667677iddgzzzzzzzzzzzzzhggse661O#396-Xo=3@-7rddddfgdddddu8767esdddfhhhfgddddy,o>addgs9OXxxx",
"dddsaiiit77777raddhzzzzzzzzzzzzzkgddr662@*eda0:++,+*69rdddjjjjgfddiruisddddddddddddsy2+@5dddds8OXxxx",
"dddddddddda7wtidddhzzzzzzzzzzzzzkhdsr663@-udddy3$#+*36wuddhzzzzzzhfdddddddddddddddgu1oo:rddddd0#oxxx",
"dddddddddddsaddddfkzzzzzzzzzzzzzzkgdr773%:uddddu6$o$<67wadgjzzzzzzzhgdddddsddddddda3+ @5sddddde&Xxxx",
"dddddddddddddddddgkzzzzzzzzzzzzzzkgse664&8sdddddr:OO*667widgjzzzzzzzjhddse0weupssde=  :rddddddq% xxx",
"dfhlhhddddddddddshzzzzzzzzzzzzzzzldse66<&9dddddds6*o#26670radgjjzzzzzhddu9667889we6#.#9ddddddd7O xxx",
"lllzzzlhfddddddddhzzzzzzzzzzzzzzlhdi066:&wdgggdddu8&X*466670raddghlzkhddu7666667881oX1udddddghq@ xxx",
"zzzzzzzzlhddddddhlzzzzzzzzzzzzzlhdsi964*$wdgzzjddda7#X;6666670eusdgjhddde766666668>o@edddddghzs>  xx",
"zzzzzzzzzzlfddddhzzzzzzzzzzzzzkhhdsq765*#7djzzzjgddu<X+:66666677eusdddds06666666681o#ydddddhzzk8O xx",
"zzzzzzzzzzzzlgfdgzzzzzzzzzzzzlgdddt7764*@6dhzzzzlfda7& @>4566666670tpsdu8566666668>o$ydddddhkzzd; xx",
"zzzzzzzzzzzzzzhdglzzzzzzzzzkggdddpw6666*&7sflzzzzfdu7>+X@=25666666670ti06666666666>o=udddddhzzzk5Oxx",
"zzzzzzzzzzzzzzzlglzlzzzzzzzhdddddt76664*;tddlzzzzhdr72*@$o%15666666667776666666675-+;udddddhzzzkq$Ox",
"zzzzzzzzzzzzzzzzhgghhzzzzzhfdddds766664*4addhzzzzfsr75;#>:$%2566666666666666666653%%8sdddddhzzzzp-#x",
"zzzzzzzzzzzzzzzzhddfflzzzhfdddddt66664>&4sfdfzzzzddt76,@*65%$>3666666666666666665-o*rsdddddhzzzzg:#x",
"zzzzzzzzzzzzzzzlfddddfglhdddddpi766664&&7dddhzzzldsr764*#6y8=#=36666666666666665>O =rddddddhlzzzh6#.",
"zzzzzzzzzzzzzllgddddddddddddddpq66664;O;tdfflzzzgddw666,$,ude,$&,466666666666662$  -rsddddddkzzzzu% ",
"zzzzzzzzhhggfdddddddddddddddfpe76666<@+4sfflzzzlfddw6664*;rddu6*#*>556666666665;o  :ydddddddhzzzzp& ",
"zllhhggfddddddddddddddddddddsr766664*o-eddlzzzzhddi76665**eddds0:O+=,5666666661#   -wddddddddhhkkr+ ",
"hgfddddddddddddddddddddddddpt866666<@#6idhlzzzhdddu75665;*wfdddse4&X$,56666662=ooOo@8sddddddddffs2@x",
"dddddiiuuuttuiiiddddddsddspe7666666*X*7ddlzzzzdddiw76666:=eddddddi9:o@=,2<32:&++%&Oo6addddddddddw$@x",
"diurww7777777700weeipsppte06766666<+O4iddlzzzhdddr776666:-edddddddpq,$o+&&&&o.o$;;@o>ydddddddddu:  x",
"w777766677666657777800007766666664* ;wsddlzzldddi7766664*-edddddsddsi8>%OOO###@%:>=O&wdddddddds9$ xx",
"776666665767677566665656666666666>+&7sdddlllfdddt7666662&,iddddddhfhhgpq74572$+=:>=+#7pdddie009,Oxxx",
"666666666666666666666666666666654&X2sdddddddddda0666664<*7psddddhlzzzzhfspsi1Xo=::&O%7adst0763,%xxxx",
"66666666666666666666666666666675*X*wdddddddddddi7766662*2idddddhzzzzzzzlgddp,.o-:=+@2rsdt9666<%%xxxx",
"6666666666666666666666666666666>@#4idddddddddds7666666;;9idddddhzzzzzzzzgggu:o+-:%o:esgy96665:#xxxxx",
"666666666666666666666666666666,@#27ddddddddddda766666>#<rddddddfzzzzzzzzzgga5@+&*O#6ugy866663:#xxxxx",
"66666666666666666666666666766<@X*7idddddddddddr666662*X1usddddsdkzzzzzzzzgddy; +@o:ysy8866863=#xxxxx",
"66666666666666666666666666664& $27ruaaddddddda7666662+O,0uddddddgkzzzzzzzkgds8#Xoo4iy86666666;$xxxxx",
"6666666666666667666666666675*Xo>6667w7rtttiitr766666,#*360iddddddgzzzzzzzgddda7% @5e8666666662%$xxxx",
"666666666666666666666666665>+.&466667777777777766666;#:667esddddddghzzzzkgdddda6@@186666666663;@xxxx",
"66666666666666666666666675<@ &<666667666766676666666;@>6668radddddddgzzkgddddddu:+:566666666652%@xxx",
"66676666666666666666666654# O,6666677666776676666666*+:56668rdddddddggggddddddds8#=566666666685-o#xx",
"666666666666666666666664,#.O>46666676666666666666666*O*76666widddddddddddddddddd0%=4666666666661#+xx",
"66666666666666666666664:@.+>466666666666666666666666*X*666667raddddddddddddddddd0%;6666666666673=+xx",
"6666666666666666666663:+.&>466666666666666666666663>$o*666666wadddddddddddddddsa9#;6666666666666<#+x",
"66666666666666666665,*o O>46666666666666666666663;*#X#<7666660adddddddddddddddds7#;66666666666663%+x",
"666666666666666666<;#.  .&456666666666666666666<*@XO&>46666677euuaaddddddddddddd9$:66666666666664*+x",
"66666666666666663*#X ooo..+>466766666666666664,*@@&*<66666666777990eeruuisssdddde&;66666666666664&Ox",
"666666666666764,$X +&-*&X .+*4666666666666444;#@*<446666666666666666677870000eei0**46666666666664%+x",
"6666666667665,*+ o%;>:*+X&-&+&46666666666644,&+*466666666666666666666666666666774#+<3333666666663%@x",
"43636622626,*#oo@*:;*$O@:9ue>@*15666666541>-%oo;666666666666666666666666666666672#X$$$*;>,<<,<23<##x",
"*$$*****$@++OXX*;:=@+$:6usddu1@@:345431,=$o   X&,35666666666666666666666666666675&   XXoooOXoO+##X+x",
"O+o+@++##@+X.X%;:&++*5yadddddr>#o@*=&%#+X  XO++oo&:466666666666666666666666666666*    O+@+O+@+oX  .x",
"**;*;;><,,>*Xo**$XO:8ugdddddse61=%%@oX   @&;:,;%oo+:66666666666666666666666666666;.X@$;,<,,,>>;*X#%x"
};
