/* XPM */
static char *result[] = {
/* columns rows colors chars-per-pixel */
"100 100 50 1 ",
"  c #040505",
". c #060708",
"X c #070809",
"o c #0A0C0C",
"O c #0D0F10",
"+ c #0F1112",
"@ c #121415",
"# c #141718",
"$ c #16191B",
"% c #191C1E",
"& c #1C1F21",
"* c #1E2123",
"= c #212426",
"- c #222629",
"; c #262A2C",
": c #292C2E",
"> c #2A2E31",
", c #2D3235",
"< c #2F3538",
"1 c #313536",
"2 c #31363A",
"3 c #343A3D",
"4 c #383C3F",
"5 c #373D41",
"6 c #383E43",
"7 c #3B4246",
"8 c #3E4549",
"9 c #40474B",
"0 c #42494D",
"q c #454D51",
"w c #484F54",
"e c #475054",
"r c #4A5156",
"t c #4D555A",
"y c #4F585D",
"u c #50575C",
"i c #51595E",
"p c #555D62",
"a c #585F65",
"s c #576065",
"d c #596166",
"f c #5C656A",
"g c #5F686E",
"h c #60696F",
"j c #646C73",
"k c #677077",
"l c #687077",
"z c #677078",
"x c #6A737B",
"c c None",
/* pixels */
"77787878777887<*#X-6777777777677777777777777777>+.*,2778885<,>;<577678rfffffffffp6=ooo >eq9774;+@ccc",
"787777777777776>$X*377777777777777777777777777<$X&277777777877777778qtpffffffffffaq;$o$9siq9774:#Occ",
"7777777777777777;oo;36777777777777777777777772& $37777777777777778qppfffffffffffffat4$;uffu07797>#Xc",
"77777777777777774-@O*:<7777777777777777777776-X+,877777777777778wypfgfffgfffffffffga9$>wffpq77773=oc",
"7777777777777777894=OO*377777777777777777777,#o;77777777778888yppffffffghjjgffgfffhd9@$6phsiq7776;@c",
"77777777777777770idt4*O&2777777777777777776<%X%4777788qeypssffffffffffgzzxjggaafdfdft-X;uhfdit076:#c",
"7777777777777778tdffft2$#>6777777777777777,%XX=777778ysffffffffffffffhxxxxjgffgghdffa9$%0fffhdit7-#c",
"q0088878778778qtdfffffs9-#;37777777777776>#Xoo-77777yfffffffffffffffgzxxxxjgghhjhhffhp2@,rsfffhs7##c",
"pppttrrwqqqqrtpffffffffft1##>47777777774;#+*:$*67778yfffffffffffffghzzxxxxzjzxxxjhdhfdr%o-rfffft;=cc",
"hfffffspsppssffffffffffffi8*o=477787772;##;80;+,7778esffffffffffffhzxxxxxxxxxxxxlhhdffp4@+4sdhs9;9cc",
"zhffffffffffffffffffffffffd0=o;677753;*#=7tpp7#&777788pfffffffffggzxxxxxxxxxxxxxjhahfffi2O:ihdi14ccc",
"xjgfgfffffffffffffffffffffff9*#=;:*%##;8tdffdi,#>778888pffffffffhzxxxxxxxxxxxxxxjhhdffffw%=rdht:wccc",
"xzjhjjfffffffffffffffffffffgt;oooo+*,7tfhffffd4+*777778tffffffffzxxxxxxxxxxxxxxxjhffffffu:$rhdr=cccc",
"xxzjxzgffffffffffffffffffffgp>@oo$<0idfffffffd3o*777778yfffffffhxxxxxxxxxxxxxxxxhdffffffs3%wfhr=cccc",
"xxxzxxjfffffspppdfffffffffffd4o@;7tdffgghffffp1#>77788effffffffzxxxxxxxxxxxxxxxzhdhdfffff7%rhhs:@ccc",
"xxxxxxjgfffstq80risfffffffffh7O;8sfggjjxljffft;=777788pffffffffjxxxxxxxxxxxxxxxjhhdhfffhd4*rhjl0%ccc",
"xxxxxxxhffft887770rpdfffffffg7@2pfghzxxxxxhff8*;77778pfffffffffjxxxxxxxxxxxxxxxjffffhdhdh6;uhzzi;occ",
"xxxxxxzjffpw7777777qtdfffffff7#6ffjzxxxxxxjfe**77777tsfffffffffjkxxxxxxxxxxxxxxjhfffdhdha9,phhzg7#@c",
"xzxxxxxjgfi8777777778rpffffgf6@9ffkxxxxxxxhs7#*77778sfffffffffffkkkxxxxxxxxxxxxhdfffdhhdh9;ufgggu>&c",
"jjzxxxzjfdr87877777778qiaffgd2#9ffkxxxxxxjgy,$,7788pfffffffffffffgkkxxxxxxxxxxzhffffffdha9-wffffaq>c",
"ffhjzzlhfp07787777777788tpfgp>&rffghjkkjjgfe>*77788fggfffffffffffffggkkxxxxxxxxhfffffffdh9*wgfffdw1c",
"fffghjhfst777777777777788qtpt=;tffffffgffffe**77778sfffffffffffffffffffhkxxxxxzhfffffffhd9%9ttpfd01c",
"fffffffap077777777777777779w7&5pfffffffffff8*;77778gfggjjjggffffffffffffggkkxxkgffffahfff8$388qti4:c",
"fffffffaw8777777777777777777>=0ffffffspyre87*;7778pgfgkzxzkkggfffffffffffffjkkgfffffhafhf8$1777793:c",
"ffffffdr87777777777777777775&,yffsfyre88777>%>7778yffjxxxxxxxkjgfffffffffffffffffffffffff9#277776,$c",
"dffffdt87777787777777777775;&8aaye888777775;@>7777ydfkxxxxxxxxzjhffffffffffffffffffffffff7#177776= c",
"idffdt97777777777777777777<&>ydt87777777777*+>7778ydfjkxxxxxxxxxkhfffffffffffffffffffffff6o*67776% c",
"9riit97777777777777777777<&$8aae77777777775;+*3777tfffkxxxxxxxxxxxkfffffffffffffffffffffd7o+>7772+ c",
"799077777777777777777777,&@5yfae77777777777>+&3777efffgkxxxxxxxxxxxkffffffffffffffffffffd4+X&573% cc",
"76777777777777777777775>@O,tdffi87777787777<+@<7778dfffkxxxxxxxxxxxxhffffffffffffffffffhp7#XX*<*. cc",
"7777777777777777777775*+.*5qtdfar87777777772$X-7878sfffjxxxxxxxxxxxxkfffffffsfffffffffffd8#  X+X ccc",
"77777777777777777875,&+X@<7788ype87777777772% $3777tsffgzxxxxxxxxxxxxffffffirr0uffffffffp6+ O   cccc",
"7777777777777779773;@$#o-777788087777777777,o o:7778qrdfgjkzxxxxxxxzjfffgdp87778dgfffffft,.X#X ccccc",
"87777777777777764>%+%&o@,787777787777777774-   %377778rdffgjjjjjjjjjgfffdp887777rsdffffp6$o$*O ccccc",
"777777777777774,%+#=:*X$3877777777777777771#+#Xo:777778ysffffffffffffgfdp888777778psggs7&#;<3;+occcc",
":377777777774,=+@%:>,*o%37777777777777777:@o#*%X#2777778yffffffffffgddsr87887777778ydd8*$,6675;#cccc",
"o*274477771:*@@%->>:;%X#2777777777777772;@Xo@:4*o*5777778rpspsssssyyyt8887777777777785*@;77777,#cccc",
"o.$*-=*-:;&Oo%=:>:=&#o o>7777777777775>$o+#O@3e3+o-377778888888888888887777777775<;*#+$;367777<#cccc",
"<*ooXXo+$@@o#;>:=%@@%*$+*37777777872**+O@$$o&8r7*o+;257777777777777777777777775,*$@#**<7777764=@cccc",
"732,;*=;,,:%o*:=@o%>253*+*37777772*#O+*&Oooo:tiq7-#+%:<5375777777777777677777<*O+#*>557777772&#ccccc",
"77877737773%X#=#o*7uiii9*+*,663>*$+#*;2,*+X#7pffpq,;*+@$***;<2555665655,,,<>&@.O*>5577777775;&-ccccc",
"77777777773*X+$X%0dfhfar2*o#%*$o+$*,57775;$#8sfffsr76-oXO+Oo+#&*;;;;;*$#@+OO@&*,55777777777,*-cccccc",
"77777777763=Xooo4ahffffu73;$+#$**<57787888;+3pffffpr86,=****$+. XoooOO#$&&&;<56677777777777>$*cccccc",
"77777777774=...-wfffffhp077322267777788ess7#*rffffffirrerere7;+ .&**->556566677777777777777,&:cccccc",
"77777777774% o%7pffffffdt8777777777778rffgt;#rfffffffsfsdfdfp7o @,5777777777777777777777777,$*cccccc",
"77777777771# $7udffffffffr8777777777778sffp3%qfffffffffffffff8++;57777777777777777777777777<**cccccc",
"77777777771@X,uffffffffffp8777777777778yffs8%8pfffffffffffffs8#;5577777777777778777777777775*$*ccccc",
"8777777799:o#9dffffffffffsr777777777778efff8#,qsffffffffffffp4*47777777777777776777777777777;$#ccccc",
"8777777778:X*yffffffffffffp077777777777efffq&$7rdfffffffstee4&,77777777777778868777777777777<##ccccc",
"8877777777*o7sffffffffhffffi08777777778tdffq&#68tsfffffst885$$2777777777777768867777777777774*+ccccc",
"8878777778;@8fffffghjxxjfffft877777777qsfffr*$6780tipyt885>#X*7777777777777786668887877777777;+occcc",
"777777888t,+8ffffhjxxxxxjfffd07777778rpfffft;#57778788873:# #27777867777776760ttpyr87777777772$occcc",
"77888rryps3+8dfffhjxxxxxkhffdw77778epdfffffp7*;,2777777,&oXX-7779wwwq09789qrpahhffst8777777776:Occcc",
"778tsfffff5+7sffffjxxxxxxhffs977770pffffffffp8>-*,775,*+  o+,778taaaggappahjxxxxjffsq777777777<#occc",
"8eydffffffq$-edfffjjxxxkjgffs97777rffffffffffpr7:%7<*+o$*$o@,770pfghzxxzxxxxxxxxzgfft8788777774*Occc",
"sddfffffffs>o,yffffghjjjgfffdr8870ifffffjffffft7*$2*oo-703#o<77epggjzxxxxxxxxxxxzgffp8777777988,@ccc",
"fffffffffff7@O2ufffffffffffffspitsffgjjkzjgffyq5*@,@O;essr*+377tffgzxxxxxxxxxxxxxjffpr9779wtipp0&Occ",
"fffffffffffe:oO1tgfffffffffffffffgkkxxxxzjffiq86*o$$3tffhi-@377tafjzxxxxxxxxxxxxxjgffptwriaffffi;@cc",
"ffffffffffff5# O6pfgfffffsfffffhjxxxxxxxkgfpw87<$o%4ihfffi,$477tfgjxxxxxxxxxxxxxxkgffffddffffffs4#cc",
"fffffffffffft:  =rfddpitq0tsffhkxxxxxxxxjfpr877*oO:ufffffs9&487rfhxxxxxxxxxxxxxxxzgffffgfffffffdw$=c",
"ffhffffffffff8$X#7trq088870iffjxxxxxkjgfst08772$X*7sffffffq*277eahjxxxxxxxxxxxxxxzjffffffffdhhjjd:*c",
"kkkxkkkhfffffi2Xo,887877778yffjxxzjgffste77774* &0ifffhhffe*;780pgjxxxxxxxxxxxxxxxjgfffffdhhhllxlq%c",
"xxxxxxxkhfffffe@o>877777778rffgjkggditq877777-o$8sffhklxhf0$*778ifgjxxxxxxxxxxxxxxjgffffhhjllxxxli*X",
"xxxxxxxxjffffft%O<877777777qsffffsyr87777777,+X1iffhkxxxjf8#*778wafjxxxxxxxxxxxxxxjgffffhjxxxxxxxh,.",
"xxxxxxxxjfffffu%o,8777777777yffptq877777775:+ &7aggjxxxxjf7+*7778yfffgjzxxxxxxxxxxxjfgjjzxxxxxxxxj7.",
"xxxxxxxxhfffffu*o:7777777777qyyq877877777<*+oO>8pfhxxxxzgf8$*7777esgffgjzxxxxxxxxxzhhjjxxxxxxxxxxl0O",
"xxxxxxxxjhffffi:+-6777777777808777777776,&+$#&58rfhxxxxjfft;*77778yffffgjxxxxxxzzzjjzxxxxxxxxxxxxlw%",
"xxxxxxxxjfffffd9%%387777777777777777776<&#;,#;58tfhzxxxjffs2*577778sffffgjxxxxxjjjhjxxxxxxxxxxxxxlt=",
"xxxxxxxxjfffffft&o-7777777777777777776>$&57*#<78tdgzxxxjfff7$>77778tfffffgjxxxzhffgjzxxxxxxxxxxxxzt%",
"xxxxxxxxhfffffdr= o:7777777777777777<*#*8t7#*377tfgjxxxjfffq**277778yfffffghjjgffffhjxxxxxxxxxxxxxw@",
"xxxxxxxxhdffffft;  $277777777777765,&$>rfp<$<777rffjxxxzhggr*+;77777qsgfffffffffffffjjjjxxxxxxxxxj9o",
"xxxxxxxkhffffffu,  X-777777777775,*#*7pffr-*5677wffhxxxxzgfs7+#<77778tsfffffffffffffffjgjjjzxxxxxj2 ",
"xkkkkkhffffffffr-   #1697777777<*@O:qafffe**6777qpfgjzxxxkgfr*O*577778tdgffffffffffffffffffggghjjp= ",
"hhgggfffffffffd0@X+oo-27777776,#.&5tffffgt*;67778tsfgjxxxxhfs7#@<777878tdffffffffffffffffffffffffq@c",
"ffffffffffffffp7oO&%@O%;23<<<*+O:0pafffffr->68767rpffgkxxxjgf8*X*5777778rpfffffgffffsppttitpippfd4oc",
"ffffffffffffffu,o#;;$o.o$*&&+X#<rafffffffr*;867778tfffjzxxkgfy7+@,8777778qrypdaaptrwqqq0889889qq0=Xc",
"ypssfddffffffse&o*>:$#@##oOO%,0iagffffffft-=6687778sffgkxxkfffr*X*57777777788rq888877777777777771o c",
"88qeeeeqtsfffs8@+=,:=@$39657rpgjjhhgfffffy>&<777778tfffgkkjffff8&+>77777777777777777777777777776=.cc",
"877788778qyffs8%+&::=oo1iddfgjxxxxxjgffffa9&>777777qsffffgfffffp<o$5777777777777777777777777777<@ cc",
"77777777770yfst3@+=>=o.1pffjjxxxxxxzhfffffu5*5777778tfffffffffffq&o*577777777777777777777777776-@ccc",
"777777777770yfsr:o%:-@o:ihhllxxxxxxxjfffffs0*>577777qsffffffffffy5#@;7777777777777777777777777,@cccc",
"7777777787780yfs7#O&&+@4ahjlxxxxxxxxhfffffft<@,777778pffffffffffsq,&@,777777777777777787777773&occcc",
"77777777787770yfu:o@+ -thhhlxxxxxxxjffffffft<o&577777tfffffffffffp8*X@<7777777777777777777774*Oocccc",
"777777777777778ti4O.X$7ddhjlxxxxxxzhffffffiq,O@<77777qpfffffffspit8<#.*3877777777777777777772#+ccccc",
"7777777777777778t4@ %9ihhdhlxxxxzzhffffffpq73*#,777778rpyppyytqq8877:oX-777777777777777777772#%ccccc",
"777777777777777791@@9ihddhhlxxxxjgffffffsr876>#:777778888008888787773* +:77777777777777777773$=ccccc",
"77777777777777777:@>uihhhddhllxlfffffffst9777>@;687777777777777777777<$ #<7777777777777777774#:ccccc",
"77777777777777774=@9hhhdffhhhhhhffffffgy87776:+*6777777777777777877777,+ $<777777777777777773#:ccccc",
"777777777433<3677=%effdffffffffffffffds877775;+*67777777777777788777787;O #,47777777777777773#*4cccc",
"777777774;#***:34;$efdffffffffffffffgdt877775*o*677777777777777777777775:@X@>4777777777777775$%,cccc",
"77777773-o#;-*&=,*@0fsffffffffffffdgff8877777;o$,577777777777777777777774,%X+-377777777777777-+:cccc",
"777777<*@$>442;#$++8sfffffffffffgdggfpe777777<$.+*:57777777777777777777777:O O=,7777777777777<#-cccc",
"77773:%+%;cccc1=+oX,tffffffffffffdssyt87777777>$oX#*<52<2<6777777777777771&Oo X$*<787777777773**2ccc",
"7743-$@%;ccccccccX $2eppdsspiuurr88888877777777<:*%+&;;$+#,6777777777777>&&==*@XX@*37777777777,#3ccc",
"->;%+##ccccccccccccc#*:16888088777778877777777775<-+ooX.o+&:<6777777875;-::1,>;*+ X$,777777777-#:ccc",
"o$#&**cccccccccccccccco+#&->134675777777777555<,**#.  cccco+$-,4577772*;1:1>,,,,;%OX+*,377776,$o$ccc",
"*,<<1ccccccccccccccccccc+++#%*=-:,<<224332<:**#%%$occcccccccXo#%;<2,;$O->;;;;:,>::*@o.+=>,>>=@+*cccc",
"cccccccccccccccccccccccccccXXXoO@####%#%#++ooX+ccccccccccccccco@@#@+. Xo@@@*-%*%@%&%o   ..oo .#%cccc",
"ccccccccccccccccccccccccccccccccccccc#+OocccccccccccccccccccccccccX  ccccc$c91&o  .oOo  .O@@@OOOcccc",
"cccccccccccccccccccccccccccccccccccccccccccccccccccccccccccccccccccccccccccccccc@X @%#oo*;1,,::ccccc"
};
