/* XPM */
static char *result[] = {
/* columns rows colors chars-per-pixel */
"100 100 51 1 ",
"  c #030404",
". c #060708",
"X c #070809",
"o c #0A0C0C",
"O c #0D0F10",
"+ c #0F1112",
"@ c #121415",
"# c #141718",
"$ c #16191A",
"% c #191C1D",
"& c #1C1F21",
"* c #1E2124",
"= c #212426",
"- c #232629",
"; c #262A2C",
": c #292C2E",
"> c #272C30",
", c #2A2E31",
"< c #2D3235",
"1 c #2F3538",
"2 c #313537",
"3 c #31363A",
"4 c #343A3D",
"5 c #393B3D",
"6 c #373D41",
"7 c #383E43",
"8 c #3B4246",
"9 c #3E4549",
"0 c #40474B",
"q c #42494E",
"w c #454D51",
"e c #484F54",
"r c #475054",
"t c #4A5156",
"y c #4D555A",
"u c #4F585D",
"i c #50575C",
"p c #51595E",
"a c #555D62",
"s c #585F65",
"d c #576065",
"f c #596166",
"g c #5C656A",
"h c #5F686E",
"j c #60696F",
"k c #646C73",
"l c #677077",
"z c #687077",
"x c #677078",
"c c #6A737B",
"v c None",
/* pixels */
"vv<#,8888898881*@o-6888888887888888888888888888>+.*<6888988<<>>1797799yfgggggggha7=oOo ,rq9898888988",
"vv2$-8888888888<$X*4888888888888888888888888881$X&488888888988887889wuaggggggggggsq>$o$0dpe989988889",
"vv<$%48888888886:oo-46888888888888888888888883%.#48888888888888889waafggggggggggggsy7$:iggp089988888",
"vvv$#388888888885-@+*:38888888888888888888886;X+1888888888888889euaggggggggggggggggg8#,eggaw88888888",
"vvv%@<8888888888807-+O*488888888888888888888<$o;888888888999wrtasgggggggkkjhgggssggg0##7fggiq9888888",
"vvv=@;7888888888qpdy7*o*38888888888888888871%X&4888889wruadddffggggggghxccxhgfggjgggi-X:igggay098888",
"vvv%o>8888888889yfggfy3$$<8888888888888888<%XX=88888wudffggggggggggggjccccxgggghfjggs0#%qgggggpywq98",
"vvv@@<88898889wydgggghf0*#;48888888888886,$Xoo=88888yfgggggggggggggghxcccckghjkkjfgggs3@<rdgggggfpyt",
"vv=@;wrerwwwtyafgggggggfy3@$<58888888884:$@*,$*78889uggggggggggggggjxcccccckkccckjjfgfy&X=yggggggfgf",
"vv=&qafadaaddggggggggggggp9*o-588888883-@@:90;@,8889rdggggggggggfgkxccccccxccccczjsjggp5@@5agggggjkk",
"v,&3agggggggggggggggggggggfq*+;788863;*$=8yaa8$*888899dggggggggggkcccccccccccccczjjfgggp3O,pgggggkcc",
"v=&tfggggggggggggggggggggggg0%@=;>*%$$;9yfggfp<@,888999aggggggggjxcccccccccccccckjfjgggge%*tggggjzcc",
"v$2skjggggggggggggggggggggghi;++oo+=<8yggggggd7O*888889yfgggggghxccccccccccccccckjggggggi:%rgghjkccc",
"v%ekclhggggggggggggggggggggha:ooX%1qpdgggggggd3O*888889ugggggggkccccccccccccccccjfgggggjf4%rgjkzcccc",
"v-szcckgggggfaaafgggggggggghf4o@;8ufgghjjggggp2@<88899tdgggggggkccccccccccccccccjfjggggfg8%rjjzccccc",
"v-sccclhgggfyqqqtidgggggggggj8+;qagggkkcckjggi:=888899dggggggghkccccccccccccccckjjfggggjf5*tjzcccccc",
"v$azcczjggfuq88889eafgggggggh9@3dgghlccccckgg9*<88889ugggggggghlccccccccccccccckggggggggf7:igxcxcccc",
"v$iccczkggfe8888889wusggggggg8@8fgklcccccckft*%68888udgggggggggjlccccccccccccccjggggggggg0<ajkcccccc",
"v$izccckgga9888888889tagggggg7@0ghlccccccckd8#*88889dgggggggggghklclcccccccccccjggggggggg0>yggjkkkkk",
"v$ezcczkgfe98898888888epfgghd3@qgglcccccckgu<%18899agggggggggggghhklccccccccccchgggggggjg0-ygggggggj",
"vO7jcckjgaq889888888888wyafga,&egghkllllhhgt>*88899ghhgggggggggggghhjjllccccccchggggggggg0&egggggggg",
"vO5sjjjjdy888888888888889wyfy=;ugggggggggggt**88889dggggggghggggggggghhhlcccccchggggggggg0%0yuafgggg",
"v+3aggsgaq88888888888888899e9&3agggggggggffq%>8888rgghhhhlhhgggggggggggghhlccckhgggggggjg8%489wuaggg",
"v@:ygggsr9888888888888888889,*wggggffdduttq6*>8889ugghlccllkjhgggggggggggggkllhhgggggggjs0#38889wisg",
"v@=yfgft98888888888888888886&,aggffpur99888,%<8888udglccccccclkhggggggggggghggggggggggggg9$398888qyf",
"v#-igfy08888888888888888888*&9ssur998888884;@>8888ugglccccccccllhhggggggggggggggggggggggf8@1988888qy",
"v$<pfy088888888888888888861&>ufy98888888886;+>8889yggjlccccccclclkhgggggggggggggggggggggg8o*5888888q",
"v%3yt088888888888888888881&&9ssr88888888888*+*4888ygggllccccccccclkhggggggggggggggggggggf8o+>8888888",
"vv<0888888888888888888981&#6ufft88888888888<+&4888yggghlccccccccccckggggggggggggggggggggd4+o&6888888",
"v$=58888888898888888887>@O<yfgfp988888888881@@<8889dgghlccccccccccccjggggggggggggggggggjd8@X.*888888",
"v%$3888888888888888881*+.*7wusgst98888888881#X;8889dgghkcccccccccccclgggggggffggggggggggd8# .X*88888",
"v%+=4888888888888887<&@o@<8899uar88988888884$ $4989rddhhlccccccccccclhgggghptwwpfgggggggd8+.o.o*4888",
"vv@+>88888888888885:$$@o;888899q99888888888<o o:8889wydggkxccccccccxkhgggga98889ggggggggu>XX##Xo&688",
"vv@o*588888888885:%+$&o@<898888888888888885;. .&388888tfgghkklkkkkkjhggggu9988899aghggga8$o$**$.o*68",
"vv$o@1888888895,&+#=:*X%4888888888888888882$+@Xo>888889ufgggggfggggggggga999888899adgga8*@*<881*O.*3",
"vv:%o*68888852=+@%:,:=X%48888888888889887,@o@*%X$3888889pfgggggggggggddt99898888999ugf9*#1889886>#O%",
"vvv*o&48883:*@+%-,,:;%X$4888888888888884;@Xo+:5=X*6888889ypdddddddppuy9998888888898898*O>888888971&o",
"vvv@X+*;::*oo&=:,:=*$o o>8888888888884>#oO$o@5r3+o*6888899999999999999988888888883**$O#>48888888876>",
"vvvX  o+#@+o#-,:-%+@$*#o%48888888883**++@%%o*9t8*o+>468888888888888888888888888<*$@$**18888888888887",
"vvv@@**><1>$O&:=@X%,446;+*48888884*#+@*%oooo,tpr8;++%>16486888888888888888888<&OO#*>6688888888888888",
"vv;*<668883&X@=#X=5yapi0*+*1684,*$+#*>1>*+o@7dgfaw<:&++$***>>4687777766<<1<>*+XO*>488888888888888888",
"vv*;4888884*XO%X%qfjjjat3*++%*$O+#*<68888;$@8ggggdr84;oXO+Oo+$$*>;;;;&##++OO+&*<38888888888888888888",
"vv&<8888885=Xooo5pjfggjy83;$@@$&*<889889q9>+3dggggdr98<;****$+. .XooO+#&*&&>167788888888888888888888",
"v@;58888886*XXX=tjjjgfjaq88411468888999tad8#*tgggggdatrrtrtr8:o..&***>667677798888888888888888888888",
"v+>88888887% X%7aggggggfu9888888888888tfggy;$rgggggggfffgdggd8O +<7878889888888888888888888888888888",
".+388888883$ %7pggggggggdy9888888888889dggd4%wggggggggggggggf9O+;68888888888888888888888888888888888",
" +188888882+X<igggggggggga9888888888889uggf8%9agggggggggggggf9@:678898888888888988888888888888888888",
" @18888880,o#qfggggggggggdt988888888889rggfq$<qfggggggggggfgd6*5888888888888888788888888888888888888",
" +18888888:.;uggggggggggggaq88888888888wgggw&&8tfgggggggdutt6&<8888888888888997988888888888888888888",
" X<7888888*o6dggggggghhggggp98888888889ufgge$#79udgggggdt996@$38898888888888799788888888888888888888",
" X:6888989:+9ggggggjkcckggggu988888888wdggft*&689wtaauu996:$X-88977989888888977999988888888888888888",
" X>88899qt<+qggggjkccccckggggq8888889taggggt;#68888898884:$ @1887997878887887qtypat98888888888888888",
"v ;8qeypad3+9ggggkkccccclhggfe88888radggggga9&;<3888888<&O X;888qeeewqq799wtasjjggfy9888888888888888",
"vX=qaffggg8+5dggggkccccclkggd088889dgggggggga9,-*<884<-+  o@<889yssshgaasshxxccckggdr888888888888889",
"vO*efgggggw$=rfgggjlccclkjggd09888yggggggggggst8;%83-+o@*$o@<880ahhjxcccxccccccccjggy888888888888999",
"vv$8fgggggd:o<ugggggjkkkggggft9889agggghjhgggfu8*#3*oo-805@O<88rsshkcccccccccccccjggpw889889q99eyadd",
"vvo:igggggg8@O3ifgggggghgggggdauuaghhjllxkggfpw7*+<@+;rddy=+388yfgkxcccccccccccccjggst9889eyaaaagggg",
"vvv-yggggggt;oO1iggggggghgggggggghkcccccckggaw97*O#$5ygghp=@588yggkcccccccccccccxkhggayttaaggggggggg",
"vvv$0dgggghf7@ O6fggghgffffgggghkcccccccchgaw981$o$6aggggp<%688yggkcccccccccccccccgggggffggggggggggg",
"vvvo4pggggggy;X =ygffapywwydggklcccccccckgat888*o+:ugggggd9&688tfhcccccccccccccccxjggggggggggggggggg",
"vvv@5sggggggg0$X@8ytwq98889aggkccccclkhgdyw8883#X*8dggggfgw*388rshxccccccccccccccxkggggggggfggkxxkjh",
"vvv=0jkjgggggp3Xo<998988989yggkccckkggdyw98886*X*0agghjjggr&:88wagkxcccccccccccccckggggggggkkxxcxxxc",
"vvv;rkczjgggggt@o<988888889ygggkkhgfayw888888;o@8dggjkcckgr%*889aghkccccccccccccccxgggggghkcccccccxc",
"vv@<dcccjgggggu$O1988888888wdggggdpr98888886<+X<agghkccckg9+*888tsgkccccccccccccccxhgggggkcccccccccc",
"vv=ezccckgggggi%o<0788888888uggauw988888884,@ &9aggxcccckf8+*8889ufggkkcccccccccccckggkkzccccccccccc",
"v55jzcccjgggggi*o:8888888888wpuw8888888881=+X@,9agjccccchg9%*8888rdggggkxcccccccccckgkcccccccccccccc",
"t5pzcccckgggggp;+-78888888888q98888888881%+#@&39ygkcccckggu;*88889ufggggkcccccccxckjcccccccccccccccc",
"05fccccckgggggfq$&5888888888888888888861%#;<#>79yfgcccckgga4*68888wdgggggxccccckkkgkcccccccccccccccc",
"57sccccckjggggjt*o;8888888888888888886,$%69*#<79yggcccckggf8&>88889yfgggghkxxxxhfggkcccccccccccccccc",
"v4scccccjgggggft- o:88888888888888883=@-0p8#-488yggkccckgggr&*388889aggggghjxkhgggfkcccccccccccccccc",
"v,azccczjfgggggy;  $388888888888886<&$<tfa<#<798yfgkcccckfgy*+;88888rdggggggggggggggjkkkcccccccccccc",
"v=yzcczkjggggggp:  X;688888888886<*@*8aggy;*4889tffkkccccggd8+#388888yfgggggggggggggggjkjkkxcccccccc",
"v%eklkkhgggggggt=.  #2708888888<=@O>wsgggt==7788waggkcccclggt;.*788889ufggggggggggggggggggggjjjkxkxx",
"v@0ghhggggggggfq@.@oo=47888888<$X%6tfgggge*;78889ufggkcccckga8#+1888889ufggggggggggggggggggggggggggk",
"v@4aggggggggggp8oo&%@O%;4611<*+O:qaggggggt->88888edgghlccckgfr*.*7888889tagggggggggfsaauuyuuiasfgggg",
"vo;iggggggggggi2X$;;$o.o$*&$+o$1esgggggggt=>878889ygggkccccgfp6+@18888888wtusffsaptewwq99q90qqwetaaf",
"v@*edfffggggggr&+=::%@$$@OO+%<qafgggggggge-=788888wdggglccxggft;o*7988888899www999988888888878899qqe",
"vo#3errrypggga9@+=,:&@$40769ragkkjjgggggga2%1888888ydgghlclgggg9$+>788888888878888888889899888878889",
"vv@=59889wpfgd9%+&::=oo2afffgkccccckjggfgs0&,888888wdggggggggggd1o&688888888888888888888888888888888",
"vvo$388888qpgfy3@@=,=oX<agfkxccccccxkggggga3-4888889ugggfgggggggw*.*68888888888888888888888888888888",
"vv++:888888qiggr-o%:=@o,pjjzzccccccckgggggs0->688888wfggggggggggp6#+>8888888888888888889888888888888",
"vvv+*6889888qifd0#o&*+@5ajjccccccccckggggggi<$>888889aggggggggggdw<$#>888888888888888888888888888888",
"vvv@#18889888qifi:o@+ ;ijjjcccccccckggggggfp1o&688888uggggggggggga9;o@188888888888888888888888888888",
"vvvv+;588888890yp5O..$9ffjjccccccckkgfggggpq<++188888wafggggggfapy91@.*68888888888888888888888888888",
"vvvvO#,888888880y5@ %0sgggjzccccclhggfgggsw84=#<888889yppaauuyrw9988>oX*8888888888888888888888888888",
"vvvvvo$18888888805@@8aggghjlcccckhggggggsy887:#;7888889q9qq9998888886*.+>888888888888888988888888888",
"vvvvv X*388888885:@:pggggghjzcczhggfgggdy0888,@;7988888888888888888883#.@188888888888888888888888888",
"vvvvv  X*58888887=@0fgggggggjjjjgggggggu98887:+*7888888888888888898888>+.$18888888888888888888888888",
"vvvvv.  X=5707887=%eggggggggggggggggggaw88887;O*78888888888888899988888>O $<588888888888888888888888",
"vvvvv o@oX=,50888;%wgfgggggggggggggggfu888886*X*788888888888888888888886;@X@;88888888888888888888888",
"vvvvX $:=+X$,8888-#qffgggggggggggggggdr888987;X&<688888888888888888888887<&X+;4888888887688888888988",
"vvvvoX=::=+ $2888;@0fggggggggggggggggdw8877881&.+*>68888888888888888888888:o o*17888884>***><6888888",
"vvvv$o*:,,=+.*388:$qggggggggggggffdppy986>>668>$oo@*1888888888888888888802%oX X@*18886-@#$$@#*>68888",
"vvvv%o@%:,,=oo*58-&tgggfgddapuytrw9w986>#o+;6881*&#+*1667888888444468888:#+$$@oXo#*33*$-343:&O$*5787",
"vvvvvX +=,<:%.o;3*&qyyrrwwqq9998888886>$@&#+*17886<*#$>6688886<*##&*>31*@#;,,:=%+.o##@;58vvv;$##=:23",
"vvvvvX o%-::*  O%+$279888888888888883*+$><;$+$*>111;+X$<66784:$XoX..o@&+%:,,,<<:;%X  @,vvvvvvv;;:&%&",
"vvvvvv...+$$o     @,577888888688641=$O$vvvvv@XX@$%$@   @=,1<=@@@vvv.   @:,,<<,<,:&OXXovvvvvvvvvvv5:=",
"vvvvvvvvv .       @234477643<,>;-*$@$$vvvvvvvv+@@&%@X    o@@+ovvvvvvvv  $=-;:::=%@@%%vvvvvvvvvvvvvvv",
"vvvvvvvvvvvvvvvvv @;-=====&#o.X Xo$vvvvvvvvvvvvvvvvvvvvv   vvvvvvvvvvvvvX$&%$%$@+O&vvvvvvvvvvvvvvvvv",
"vvvvvvvvvvvvvvvvvvv%#@oXXX .  vvvvvvvvvvvvvvvvvvvvvvvvvvvvvvvvvvvvvvvvvvvv:$. .ovvvvvvvvvvvvvvvvvvvv"
};
