/* XPM */
static char *result[] = {
/* columns rows colors chars-per-pixel */
"100 100 49 1 ",
"  c #040505",
". c #060708",
"X c #070809",
"o c #0A0C0D",
"O c #0D0F10",
"+ c #0F1112",
"@ c #121415",
"# c #141718",
"$ c #16191B",
"% c #191C1E",
"& c #1B1F21",
"* c #1E2124",
"= c #212426",
"- c #232629",
"; c #252A2C",
": c #282C2E",
"> c #2A2E31",
", c #2D3235",
"< c #2F3538",
"1 c #303537",
"2 c #31363A",
"3 c #343A3D",
"4 c #373D41",
"5 c #383E43",
"6 c #3B4246",
"7 c #3E4549",
"8 c #40474B",
"9 c #42494D",
"0 c #454D51",
"q c #484F54",
"w c #475054",
"e c #4A5156",
"r c #4D555A",
"t c #4F585D",
"y c #50575C",
"u c #51595E",
"i c #555D62",
"p c #585F65",
"a c #576065",
"s c #596166",
"d c #5C656A",
"f c #5F686E",
"g c #60696F",
"h c #646C73",
"j c #677077",
"k c #687077",
"l c #677078",
"z c #6A737B",
"x c None",
/* pixels */
"xxxo:666767666<*@o-6666666664666666666666666666:+.*,3666776,>>:,475667rsddddddfdi5=o+o >w98666666866",
"xxxX-6666666665>$X&366666666666666666666666666<$X%3666666667676666670riddddddddddp9;#o#8au0866666666",
"xxxX*46666666666:oo;33666666666666666666666662*.$366666666666666770iisfdddddddddddpr5#:yddu866866666",
"xxxo%266666666663-@O=:16667666666666666666664-.+<6666666666666670uisdddddddddddddddd8#:qsgi086666666",
"xxx#@;5666666666685=+o*366666666666666666666,#o-6666666667770weussfdfssfhhhdsfdddddd8##5agau06666666",
"xxx=o=46666666669usr5=o&1666666666666666664<%o%36666670wtiaaasddddsfsfflzzhfdssdddddy-.:yddsir966666",
"xxxxo@2666666667rsdgsy3$#,6666666666666676,%.X-666669tassdddddddddddfhzzzzhfddddpgddp8#&9gddgsur0886",
"xxxx@o166676670rssdsgds9=@;36666666666664:$Xoo-76666rdddddddddddddddfhzzzzhffhhhggdddp2@,eidddddsuye",
"xxxx+o390000erissddddddsr1@$:36666666663:$+*:$&36667tdddddddddddsfdhhzzzzzlhlzzzggdddde&o;qgsgsdgsgs",
"xxxxx@6iaiiassffdddddddddu8%+-386666661;@@:79;@,6667waddddddddddfshhzzzzzzzzzzzzkgpdddu3@+3ugsgssggh",
"xxxxx%3idddddddddddddddddgs9=O:366632:&$=6riu7$*366677idddddddddffzzzzzzzzzzzzzzhggddsgy3o>ugsgsggzz",
"xxxxx@1idddddddddddddddddsgd8%@=;:=%#$:7rsdddy,@,677777addddddddflzzzzzzzzzzzzzzkgddddddq&&rgssggkzz",
"xxxxx@4pdddddddddddddddddddgy-+Ooo@*,6rdgdddds3@*666667esddddddflzzzzzzzzzzzzzzzhgddddddy:%qgsgghzzz",
"xxxx.#0sdddddddddddddddddddgi:Ooo$19ypddddddds2o*666677tdddddddhzzzzzzzzzzzzzzzzgddddddds3%egghkzzzz",
"xxxx.-udddddsiiisdddddddddddd3o@-6rdddgggdddds,@>66677esdddddddhzzzzzzzzzzzzzzzlgdddddddg5&qggkzzzzz",
"xxxx+4dfdddsr989eysdddddddddd6@;9adddhhzkhdddr:=666677adddddddfhzzzzzzzzzzzzzzzhgddddsdgu5*eghkzzzzz",
"xxxo-yhgfdsu776667eisdddddddf7@2idffjzzzzzfda7*,66667idddddddddhzzzzzzzzzzzzzzzhddddddpgd5;yflzzzzzz",
"xxx#8hkhsds066666760rsddddddd6@5sdhjzzzzzzhdw;%36666wddddddddddhzzzzzzzzzzzzzzzhgdddddddd81ifhlzzzzz",
"xx=1pzkhddu7666666667eidddddd4@8dfjzzzzzzzga6#*66667addddddddddfhjzzzzzzzzzzzzlhddddddddd8;rfdhggggh",
"xx-0kzkhfse766766666670usddfs1$9ddjzzzzzzhft,$<6677idddddddddddddfhjzzzzzzzzzzlgddddddddd8=rfsddgggg",
"xx*ukkkgdi96666666666677risdi>&qddfgjjjjhdde;*66677dfddddddddddddddffjjzzzzzzzzgddddddddd8*qsdddddgs",
"xx*igggdar6666666666666770rsr=:yddddddddddde*;66767ddddddddfdddddddddddfjzzzzzlgdddddddgp8%8trisdddg",
"xx*uddddi966666666666666667q6&3iddddddddsss0%;66667ddffhhfffddddddddddddffjzzljfddddddgpd8#3770risgs",
"xx*udddpe7666666666666666667>=0sddddsaitrw03*>6667tfdgjzzzjhffdddddddddddddhjjfddddddgpgd8#265670yss",
"xx=uddse76666666666666666664&>ifdsaiew77666,%,6666rdfhzzzzzzzjhfddddddddddddddddddddddddf7#2766668ys",
"xx%ydsr76666666666666666666*&7pitw777667664;@;4667rdfhzzzzzzzzjhfddddddddddddddddddddddds6#<6666668y",
"xx#rar76666666666666666666<&>tdr76666666664-+;6667rddfzzzzzzzzzzjhddddddddddddddddddddddd6O*46666668",
"x @6e77676666666666666666<&$6pp076666666664-+-3666rddfjjzzzzzzzzzjjfdddddddddddddddddddds6XO>6766666",
"x.o>66666666666666666666<&#4tspw76666666666>+&3666wdddfjzzzzzzzzzzzjgddddddddddddddddddda4+o&4666666",
"xxX*4666666666666666666>@O<esddu76666666666<+@<6667ddddhzzzzzzzzzzzzgddddddddddddddddddda6@XX*466666",
"xxX%46666666666666666<*+.*40tpdpw76666666662$X-6667addfhzzzzzzzzzzzzjdddddddsddddddddddds6@  o*66666",
"xxo%4766666666666666,&@X@<6677tiw66666666662% $3767widffjzzzzzzzzzzzkddddddue90uddddddddi6+ oXo*3666",
"xxO%366666666666653:##@o-666678977666666585,O o:76670raddhlzzzzzzzzlhddddsi76667sffsfdddr>XX##oo*366",
"xx@%3666666666663>%O$&o@<676666666666666585-   %366666esddfhhjhhhhhffdddsi776667wasfsfdu6#o$**$XX*46",
"xx$%58666666664:&@#=:=.%2766666666666666851#+@Xo:666667tsdddddsddddddfdsu777666677uadda7*#;,66<*OX*3",
"x:$$3658666631=++&:,>*o%36666666666666663>@o@=%X$2666667usddddddddddssar77776666667tds7*#,666664;$O%",
"x%@@1355653:*#+%->>::%.#2666666666666662:+Xo+:3=X=3666667ruaasaipaiatr7777666666676674*+;66666666<&X",
"x. +*-;;::*Oo&=:::=*#O o>6666666666763,$XO$O@3q3+X-366667777777777667776666666666<**$+$:<6666666654:",
"x   XXoO@@@o#-::-%@@%&$X%26666666672*%+O@%%X*8e6=o+:366666666666666666666666666>*$@#**<6666666666665",
"x .*-*=:11:$O*:=@o%:243:+-26666662*$+@*$OXOO:euw4;@@$;<3364666666666666566666,&OO#*>4466666666666666",
"x +<4646563%X#=#o*6yiiy8*+*<363>*$O@*,<,%+X@5sdsa9<;*o@%***;,2466554544,><<>&@.O*>466666666666666666",
"x %36666683*X+%X%9sdddpe2*O@*%$O+$*,36666;$#6ddddsw63;oXO++o+#$*;;;;-&#@@+OO@&*,26666666666666666666",
"x *46666633=Xooo3pgddddy72;%@@$%*<37666797;@2iddddaw86>-****$+X .Xoo++#&&&&;<45566666666666666666666",
"x :46666683=...=eddddddi9642<<267666677eaa6#*edddddsuewwewew6;+ .&**;;445555566666666666666666666666",
"xX;66666853%.o%6pddddddst7766666766666wasdr;$wddddddddsssdsda6o @,5666666666666666666666666666666666",
"x *46666553#.$6ysdddddddsr766666667666wsdda3%9dddddddddddddda8O+-46666666666666666666666666666666666",
"x.*36666881@.:yddddddddddu7666666666667tdds6%7udddddddddddddd7@:456666666666666666666666666666666666",
"xX$<666658:o#9sddddddddddsw7666666666677dds9%,waddddddddddsdi3-3666666666666666666666666666666666666",
"xo@,666666;X-tddddddddddddu9666666666660ddd9%%6rddddddddatee5*>6757666666666666666666666666666666666",
"xoo=666666=o6addddddddgddddu86666666667tdddq%$37esdddddie773@$26576666666666676666666666666666666666",
"xxX$366667;+7dddddgghzzhddddt766666667wsdddw=%4679ruiur974>#X=66757566666666555770666666666666666666",
"xxo@<6778e,+8ddddghzzzzzjdddd96666668wudddsr;$36666777663>@.#26657756566566670qquue76666666666666666",
"xxoo>0ryis1+7ddddghzzzzzjgddsq666679uddddddu7&;<2666665,&o.o-6669qq00087780qiphhddsr7666666666666666",
"xx$o:ydddd5+3sdddfhzzzzzzgdda866668addddddddi8:-*,663,=O..X+,667rppdddiiipdllzzzhddaw666666666666677",
"xxxX&wdddd0%=wddddghzzzzhfdda87667eddddddddddse6:$41-+o#*#o@,669iddglzzlzzzzzzzzlgddr666666666667777",
"xxxX@8sddgi>o,ysdddfghhhfdddsw7669uddddgggdddsr7-#3*oo-683#o,66wpdfllzzzzzzzzzzzlgddu06676679770ruaa",
"xxxoo9ddddd5@+1ydddddddddddddduutudddgjkzhdddt94=@,@o:wasr*+366esfhlzzzzzzzzzzzzzhdsse7767wriiiidddd",
"xxxo@9ddddde:oO1yddddddddddddddddgjjzzzzzhddi974&o#$3rddgu=@368rsdhlzzkzzzzzzzzzzhfddirqeusddddddddd",
"xxxo*eddddds5@ O4sdfdddssadddddgjzzzzzzzjgda076<#o$5idddsu:%366edglzzzzzzzzzzzzzzlffddsssddddddddddd",
"xxx %qddddddr:. =edssiurw0raddgjzzzzzzzzhduw766=o+:ygdddgs8&468esglzzzzzzzzzzzzzzlfsdddfdddddddddddd",
"xxx.o8dddddds8%.@6re0977669uddhzzzzljhgdat97662@o*6sddddddw*166wpghzzzzzzzzzzzzzzzhddddddddddfhllhfd",
"xxx @wggdddddu2oo,776766667tddgzzzhfddat076664*.&8usddgggdw%:679ifhkzzzzzzzzzzzzzzhddddddddfhllzzlll",
"xx  :dzkgdddddw@o,766666667edddhjfddue9766665:o@6sddgjkzgd0$=568isfhzzzzzzzzzzzzzzlfsddddfhllzzzzzzz",
"xx O8jzzgdddddy#o,9666666660dddddaue87666665>@o1iddgkzzzgd8@*567qpdhzzzzzzzzzzzzzzhffdddghzzzzzzzzzz",
"xx.:pzzzhdddddr%O>8666666666udsir0776666663>@ &7iffhzzzzhs6+*6667tdddghzzzzzzzzzzzzhdfghkzzzzzzzzzzz",
"xxO5kzzzgdddddu*o:66666666660uu0666666666<=+oO>7isgzzzzzgd7&*6666waddddhzzzzzzzzzzlgghkzzzzzzzzzzzzz",
"xo%qkzzzhgddddu;O=6666666666788666666666<%+#@&37rdhkzzzhddt;*66667tsdddghlzzzzzlllhhhzzzzzzzzzzzzzzz",
"x$=izzzzhddddds8$&366666666666666666664<&@:,@:57rsfzzzzhddi3*366660iddddfhzzzzzhhhfhzzzzzzzzzzzzzzzz",
"x#>fzzzzhgsdgsdr*o;4666666666666666664>$$47=@,57rdfjzzzhdds6%>66667tsddddfhzzzlgddfhzzzzzzzzzzzzzzzz",
".#5hzzzzgdddsgse-.o:66666666666666663*@-8u6#-366rsfhzzzhdddw&*266667udddddfghhfdddsfhzzzzzzzzzzzzzzz",
".%ilzzzhgsddgsdr=  $266666666666664,&#,esi,#,576rsfhzzzlgddr*+;666660adddddddddddsffhhhzzzzzzzzzzzzz",
" *pzzzzhgddddddy>X X;466666666664,*@*6isfe;*3667essfzzzzzdda6+#166666rsfddddddddddddddggghhlzzzzzzzz",
" oykhhhfddddddde=.  #1586666665<*@O:0pfdfe**56660addhzzzzjdde;X*466667tsdddddddddddddddddddffghhhhll",
"x@2pfffddddddds9#X+XO=33666655<$.&4rsdsffr*-56667rsddhzzzzhdi6+#<666667tsddddddddddfdddddddddsfsddff",
"x@#qsdddddddddu6oo&%O+&:34<3,*+O:9isfddsdw->57656widdfjzzzhdsw*X*5666667widdddddddfspiitrrityiisdddd",
"x..:iddfddddddu,X$;:$o.o$&&$@o$,qpddddsfdw*;756767rdddhzzzjfsu4O@<66666670etpppiire000988877890qriid",
"xx #9ssssddddsw*O*::%###@+OO$,9upddddddddq==5675669addfjzzlddse;X*47666657770009777766666666666777ww",
"xxxO,000riddda7@+=1:&@#38447eifhhhhddddddi,&<657666tsdddjljdddd7&+,566666666656766666666766666666666",
"xxxx&,3670usda6%O&::=oo1udpsghzzzzlhdddddp8&>6666660adddddddddda<X&456666666665566666666666666666666",
"xxxx$%,6669udsy2@@=:-o.>pdfghzzzzzzkhdddddi2*4566667tddddddddddd0&X*56666666667666666666666666666666",
"xxxxx#:56679usse:o%:=@o:uggkkzzzzzzzhddddda9*>4766660sddddddddddi<#@>6666666666666666666666666666666",
"xxxxx@;567660usa6#O&*O#4ighkkzzzzzzzgddddddr<#>666667addddddddddaw,$@>666666666666666666666666666666",
"xxxxx#*5666669usy:o@+.:yddhkzzzzzzzlddddfssu<o&466666rsddddddddddi7-X@<66666666666666666666666666666",
"xxxxx%-56666668rp3O..$6pdghkzzzzzzlgsddddai0,O+<666660idddddddsiur7<$ *46666666666666666666666666666",
"xxxx$%1666666668e5@ %8uggshkzzzzzlgddddddi063=#<666667ritiitutw07765;oX*6666666666666666666666666666",
"xxxx@;566666666681@@5psgsggkzzzzhfddddddse765>#:666666777997766676664*X+>666666666666666666666666666",
"xxx@%166766666665:+:ypgpsgsgkkzkddddsdfae7665>@;666666666666666666666<$ #<66666666666666666666666666",
"xx@O-566666666665=#8ggpggsggghggdddddddu96666:O*4666666666666666776666,+ #<6666666666666666666666666",
"xxO#1666666666665=%wddddsgddddddddddddi766665-+*56666666666666667666675>O $,366666666666666666666666",
"xx+*6666666666666:%9dsddgsddddddddddfst766664*o*566666666666666666666664:+.@:66666666666666666666666",
"x+@,6666666666666;#9sdddsdddddddddddsa7766665-O$,466666666666666666666665,%XO-3666666666666666666666",
"x+%66666666666666;#6addddddddddddddffiw7666654$.+*>46666666666666666666666>O o*<66666666666666666666",
"x+*36666666666666;#9dddddddgdgdddsastr76666666>$XX@*<666666666666666666661%X  .#*<666666666666666666",
"x+%66666666666666;%edddsdaiiyyrwr77777766666666<;&$+*>464666666666666666>@XXoOoXo@*46766666666666666",
"x+%36666666666665=*9urew09988866666676666666666662>*#$;4466666666666654*+..X%=-%+ X&>466666666666666",
"x@$36666666554311@#588666666666666666666666666666664*+$<44666666666664*+%-%X+=;;;$O +*<6666666666666",
"x$#14<<<<,>>**&$$.+366666666666666666666666666666666;OX$-;14666666664%+;wt7,#+$*;:*+oo@:133334444343",
"xoX#$+OoXOOoOoX   &47666666666666666666666666666642<*    O%*,<24444;@@4tddst6:$+@=:;&o.oO+#%%***&&%*",
"x.  oo+++++++O    *666666666666666666666666666674>*Xo+++X  X+#%***+o#>rdfdddsr5&+@*;:&o.XO@@@@@o+ooX",
"x%+o*;>>,><<,;%+XX:66666666666666666666666666666>+XO%;>>;*+X   o@&&*<6wsddddddi7:+X$*%.o*:11,>::;;-="
};
