/* XPM */
static char *result[] = {
/* columns rows colors chars-per-pixel */
"100 100 51 1 ",
"  c #040405",
". c #060708",
"X c #070809",
"o c #0A0C0C",
"O c #0D0F10",
"+ c #0F1112",
"@ c #121415",
"# c #141718",
"$ c #16191A",
"% c #191C1D",
"& c #1C1F21",
"* c #1E2124",
"= c #212426",
"- c #232629",
"; c #252A2C",
": c #292C2E",
"> c #2A2E31",
", c #2D3235",
"< c #2F3538",
"1 c #323537",
"2 c #31363A",
"3 c #343A3D",
"4 c #383C3E",
"5 c #373D41",
"6 c #383F43",
"7 c #3B4246",
"8 c #3E4549",
"9 c #434547",
"0 c #40474B",
"q c #42494D",
"w c #454D51",
"e c #484F54",
"r c #475054",
"t c #4A5156",
"y c #4D555A",
"u c #4F585D",
"i c #50575C",
"p c #51595E",
"a c #555D62",
"s c #585F65",
"d c #576065",
"f c #596166",
"g c #5C656A",
"h c #5F686E",
"j c #60696F",
"k c #646C73",
"l c #677077",
"z c #687077",
"x c #677078",
"c c #6A737B",
"v c None",
/* pixels */
"77787877877877<*@o-6777777776677777777777777777;@.*,5578887,,>>,577678yfgggggggga6*OOo.;rq8777777770",
"787777777777776,$.&477777777777777777777777777,%X&377777777777777778wysggggggggggsw;$X$0gpe770077777",
"7777777777777776;Oo;56777777777777777777777773% $37777777777777777wysgggggggggggggsy5$:igfp077077777",
"77777777777777774=@O*;<7777777777777777777776-X+,777777777777778wasggggggggggggggggg7$>eggaw77777777",
"7777777777777777707=+O*277777777777777777777,#o;7777777778888wtaggggggggkkkggggggggg9##6sgfpe7777777",
"7777777777777777qpsy7*o*3677777777777777776<%o%3777778wtuadagggggggggghxxcxhgggggsggi-.>ijggayq77777",
"7777777777777778yfggdy2$#,6777777777777776,%.o=67777wudfgggggggggggggkcccckgggggggggs0#&qggggfpyeq87",
"wqq88878787778wyfgggggg0*#;37777777777776>#Xoo;77777yfgggggggggggggggxcccckggkkkjggggs1@,rfgggggspyt",
"saaayttwwwwwryafgggggggft1#$>47777777763;#@*:$&67778uggggggggggggggkkcccccxklccczjsgggy%X;eggggggfgf",
"kgsgggdddsasfggggggggggggp9&o-377777773-##;8q;@>77788dggggggggggggkxccccccccxccczjgggga5@+5sgggggjkk",
"kkggggggggggggggggggggggggfq=O;477762;&%=7ysa7$*77778ydgggggggggggccccccccccccccxjggggsa2O>igggggkcc",
"ckggggggggggggggggggggggggjg0%#=;;*&$$;8yfggfp,@>777788adgggggggkkcccccccccccccczjggggggw&*eggggjzcc",
"cxkgkkggggggggggggggggggggggy;OOoo+*,7ygggfggf4+*777778yggggggghxccccccccccccccckgggggggi:%ejfjjkccc",
"cckxxxjggggggggggggggggggggka>OoX%<qpfgggggggf3o*777778udggggggkcccccccccccccccckgggggggs4%tjjjzcccc",
"cccccckgggggfaaafgggggggggggg3o@;7yfggggjgggga,#>77788rggggggggkcccccccccccccccxjgggggggg6%egjzccccc",
"ccccccxggggfyqqqtpdgggggggggg7@;wagggkccckjggi;=777788aggggggggxcccccccccccccccxggggggggf6*ejzcccccc",
"cccccccjgggyw7777qeaggggggggg7@2aghkxcccccjgd8*>77778uggggggggglccccccccccccccckgggggggjg6;phxcccccc",
"ccccccxkggsw7777777wysggggggg7#7dgkxcccccckgu*%77777ufgggggggggkcxccccccccccccxkggggggggg01agkxccccc",
"cxccccckgga8777777778yagggggg6@7fhlxccccccjd7#*77778dggggggggggglxxxccccccccccxkggggggggg0;yghjkkkkk",
"kkxcccxkggw77777777777wuggggf2#qghlccccxckgu,$<7788aggggggggggggghklxcccccccccxjggggggggs0=ygggggggj",
"ggjkxxkjga8777777777777qysgga>&egghkklllkhgy>*77878ggggggggggggggghhjllxccccccxjggggggggg0*egggggggg",
"ggggjkjggy877777777777770wysy=;pggggghhggggr**77878ggggggggggggggggggggjxcxxccxkgggggggjg0&8yyafgggg",
"ggggggggaq87777777777777770e7&3aggggggggggd8%;77788ggghkkkhhgggggggggggggklxcclgggggggsjs8$388wyaggg",
"gggggggsw8777787777777777767>=qggggffdautr87*>7777uhgkxcxxllhhgggggggggggghkxlkgggggggggj8$17778wpsg",
"ggggggfy77777777777777777775&>uggffuur88777>%,7777rggkcccccccxkhggggggggggggggggggggggggg7$277776qis",
"fggggsy87777777777777777776;&8gsur887777773;#;3777ugglccccccccxkjgggggggggggggggggggggggg7#<777777qy",
"pfggfyq7777777777777777776,&:ugy87777777775;+;7778uggjccccccccccxkggggggggggggggggggggggg6O*6777777q",
"qtpptq6777777777777777777<&$8ssw77777777777*+*7777ugggkccccccccccxljggggggggggggggggggggg7XO>7777777",
"77qq77777777777777777777<&#5ufst77777777777,+&3778rggghlccccccccccckggggggggggggggggggggd5+o&5877777",
"77777777777777777777776>#O,yfggu87777777777<+@<7778gggglcccccccccccckgggggggggggggggggggs7@X.*587777",
"777777777777777777777<;O.*6wusgst87877777772#X;7778dgggkcccccccccccckgggggggsgggggggggggf7@...*77777",
"77777777777777777776,&+X@,7788uar77777777772% $5777rdgghccccccccccccxggggggawwwaggggggggd6+.o.o*3777",
"7777777777777777774:#$#o-777788q87777777777,o o;7778wydghkxxccxccccckgggggu87778ghggggggy>..@#..*577",
"87777777777777773:%+%%o@,877777787777777774;.  $377777tffghklkklkkkhhggggur87778raggggga7$o&;*&..*57",
"777777777777774,&O#=:*X%3777777777777777771#o@oo:777778ufhggggfhgggggggga888777788ufgga8&#-<552*O.*<",
";377777777764,=+@&:>>*.%57777777777777776:@o#*%o%2777778uffhgghfgggggfdr87777777778ugf8*#,777775>$O&",
"o&<75557771>*@+%-:1:;&.#2777777777777773:@Xo@:4*o*3777778ydddddadduauy8788777777777785&@;57777776,*.",
"o.@--*-;>:&Oo&=:::=%@o O>7777777777773>$oO#O@3e2+X;577778788888888888887777777775,;*$+#>57777777775>",
"<*OooXoO##@o#-::-%@@%*$o*27777777772**++@%%o&7y7*X+;267777777777777777777777775,*&@@*;,6777777777775",
"75<,-*-;,,:$O&:=@X%:233;+*37777773*$+@*$oooo:ypw7;@+%;<5373777777777777777775<&+o#*>5577777777777777",
"77876557772&.@=#X=4iaii9*+*<663,*$+@*>2>*+o$7aggaw,;&O@$**;;;2557666655,,,,>*#.O*>557777777777777777",
"77777877772*.@%X&9sjjjdt2*++%*$o+$*>57775;%+7ggggfr76;oXo+Oo+$%*;;;;;&$@@+OO@#*,55777777777777777777",
"77777777773-.ooo4pjfgggi82;%@@$&*,777777w8;+2aggggdr86,=;***%+..XXXoOO@&&&&;<56677777777777777777777",
"77777777777*..X-tjjjggga8773<<36777777qraa7$*ygggggdpyrrrwrr7;o .&**->556666777777777777777777777777",
"77777777774& X%7aggggggfyq777777777778rdggy;$wgggggggfdggffgd7o +,6777777777777777777777777777777777",
"77777777772@ $7pggggggggdy777777777777wfgga3%wfgggggggggggggf0O+;57777777777777777777777777777777777",
"77777777781@X>igggggggggga8777777777778ufgf7%8agggggggggggggd8#;567777777777776877777777777777777777",
"7777777777>o#qdggggggggggft777777777777rggfw%,qdgggggggggggga4=4777777777777868777777777777777777777",
"7777777778;o-uggggggggggggaq77777777777rgggw&%6yggggggggdutt5&,7686877777777877777777777777777777777",
"7777777777*o6dggggggggjggggp07777777777ygggw%#68ydgggggdy875#$17888677777777687777777777777777777777",
"7777777778;+8fggggggkcckggggu877777777wdgggw*%678qypapyq75>#.-77866878777777866888877777777777777777",
"77777788qr,@wggggkkccccckgggfw7777778taggggy;#57777787773:@.$,776886767777766weeuat87777777777777777",
"77888ryudd3O8dggggccccccxjggfe77778ragggggga7&;<2777777,&o.X;777qeeewqq888weaskkggdy8777777777777777",
"778yaggggg4O4dggggkccccclkggd077778aggggggggs8;-*,774,=+  o@,777isssggaassgxxccckhgst777777777777788",
"8rufggggggw%=tggggklccclkjggd07777yggggggggggsy7;%7<*+o#*#o@,77qaggkxccxxcccccccxjggy777777777777888",
"ddggggggggd>o,ufggggjkkkggggft877qpggggjgggggfy7;@2*oo-704#o,77rsggkccccccccccccxjgguw778777w88wuudd",
"ggggggggggg6#O3yfggggggggggggdauuaggkkklxkggguw5*@,@O;tdfy=@277yggjxccccccccccccckggsw8878wyaaadgggg",
"gggggggggggy;oo1pgggggggggggggggggkxxcccckggaw76*o$$4ygggp=@377yggkxccccccccccccckgggsywyufggfgggggg",
"gggggggggggf6# O6sggggggffgggggjlcccccccxjgsw87<$o$6aggggp,$477yggxccccccccccccccxggggggfggggggggggg",
"ggggggggggggy;. =tggfaatwwydggkxccccccccjgar777-oO;pgggggf7=677tggxccccccccccccccxkggggghggggggggggg",
"ghhhgghgggggf8% @7ytwq88778aggkccccclkggdyw7772#o=7fggggggw*277rsjkccccccccccccccckgggggggggggjxxkgj",
"llllllkjggggga3Xo,887777878uggkxcckgggduw87774*.%0pgggkgggr&;77wsgkccccccccccccccckggggggggjkxcccxxx",
"ccccccclhgggggy+o,887777777ygggkkkgfpyw877777;o#7dggjkxlkgw%*778asgkccccccccccccccxgggggggkxcccccccc",
"ccccccczkgggggy$O,877777777wfggggdat87777776,+o,pggjlccckg8@*678eggkxcccccccccccccxgggggjkcccccccccc",
"ccccccccjgggggi%o,8777777777uggayw887777776;@ &7sggxcccckg7+*7778ugggjkxcccccccccccjggkkxccccccccccc",
"cccccccckgggggp*o:7777777777wuuw877777776<-+XO>8agjccccxgg8%*7777rdgggjkccccccccccxkjkxccccccccccccc",
"cccccccckgggggp;+-77777777777q8777777777<&+##&3qygjxccckggy;*77778ufggghkccccccxcxkkkccccccccccccccc",
"cccccccckgggggg9%%377777777777777777776<&#;>#;58yghxccckggd3*37777wdgggggkccccckkkgkcccccccccccccccc",
"cccccccckggggggt*o;7777777777777777765>$%58=#,78yggxccckghd7%>77777yfgggggkcccxjgggkcccccccccccccccc",
"cccccccchggggggy= o:77777777777777773=@=qy6#*577yggkccckgggw&*27777quggggghkkxggggghxccccccccccccccc",
"ccccccccjggggggy;  $<77777777777766>&$>ygp,$<677yggkcccchggy;o;57777wdggggggggggggggkkkxcccccccccccc",
"ccccccckgggggggp>  X;577777777775,*#&7aggy;&5677efgjcccclhhd6+$277777ygggggggggggggggggkjkkxcccccccc",
"ccclllkggggggggt-.  #1777777776,=OO;wsgggt**5877wsggkcccclggr;X*677778yfggggggggggggggggggghhjjkkkxx",
"hhhhhhggggggggfq@XOoo=37777777,$X&5ygggggy*;67778ygggxcccckga7+#,777778ufggggggggggggggsgggggggghggj",
"gggggggggggggga6oO%%@O%;32<<,*++;qaggggggt;:68767ragggxccclgfr*.*7777788tsggggggggggsaaayppypasggggg",
"gggggggggggggfp1X#;:$o.o%**%+o$,esgggggggt*:667778tgggkccxlhgp5o@,87777788yusfssayywwwqqq77q8qwwyusg",
"upddgdddfgggggt&O=>:%@@#@Oo+%,qpgggggggggy-*668777qdgggxcclggfy;X*5777777788www8888777777777777778wt",
"88wrryrrydffgd7@O=::*@$40667ragkkkhggggggp,&<777778yfggglxkgggf8&+,677777777767877777777878767777777",
"877778777rpfgd7%+%::=oo1pgdgglccccxkhggggs8&>777777wdggghhggggha,o&577777777777667777777777777777777",
"7777777777wufgi3@+=1=o.,aggkxccccccxjgggggu5*5777778ugggggggggggw&.*57777777777777777777777777777777",
"77777777777qugft;o%;-Oo:pjjzzccccccckgggfgf8->577777wdggggggggggu5#@>7777777777777777777777777777777",
"7777777778770ugd9#O%=o@7pjjzccccccccjggggggu,$>777778aggggggggggsr,#@>777777777777777777777777777777",
"7777777770777qufi:o@@ ;yjjjcccccccckgggggggu,o&577777yggggggggggga8;.#,77777777777777777777777777777",
"77777777777777qyp4OXX$7ggjjcccccccxhgggggguw,O@<77777wagggggggfaat8<#.*58777777777778777777777777777",
"7777777777777778y4+ %8agggjccccccxjggggggaw73*#,777778yapappuytw8877;OX*7777777777777777777777777777",
"777777777777777791@@7aggggjzcccckhhgggggdy876>#;677778888qq8877777775*.+:777777777777777777777777777",
"77777777777126777:@:pggggggjzcczggggdghdy8777>#;777777777777777777777,$ $,77777777777777777777777777",
"77777777772&*>,44-#9ggggggggjjjjgggggghu87776;+*6777777777777777877777,+ $<7777777777777777777777777",
"77777777772%$$%;,=%eggggggggggggggggggg877776;O*67777777777777778777786>O #,777777777777777777777777",
"77777777772%vvv@@@%wgfgggggggggggggfhfu877775*X*677777777777777777777775;@.@;47777777777777777777777",
"77777877771$$vv%%o@0ffgggggggggggghhgg8877776;X&,577777777777777777777776,%X+;3777777777777777777777",
"7777777776;O@vvv4&o4pgggggggggggggghgu88777755&.+*;67777777777777777777777:O o*,77777777777777777777",
"7777777773%o@vvvv-o%9fgggggggggghgdfuy87777775>$o.@*,777777777777777777771%X  .@*2777777777777777777",
"777777776;#ovvvvvvv;-0dgggdppput888888777777777,*&$@*,577777777777777777:@ooO@o..#*57777777777776433",
"*277773,;@oOvvvvvvvv,%2qqrqq0877777577755555577775>*$$>5667777777777755*@o$=-:-&+..&,5777777772>-*&%",
"+*****$+. ..vvvvvvvvv*@-3777777777755>-**&&$*>57777,*o$>36777777777775*@%-:>>>,;;&o.@*,57775>*****#.",
"$&$+X     vvvvvvvvvvvv%@*,6776662,;&@oooo.Xo.@=23<>*+  #*;2577777775,*o+$;>1>>>>1:=#oo@-11>=@+*:vvv@",
"vvvvvvvvvvvvvvvvvvvvvvv:=%*;>;;=%@#+..vvvvvv. o$$@o.    .o#=,<23552-@ o%*-:>>>:::::-$oXOOOX.ovvvvvvv",
"vvvvvvvvvvvvvvvvvvvvvvv64>*==%&=;-vvvvvvvvvvvv   vvvvvvvvvv.o@$%*$o.o$281vvvvvvvv:==$O      vvvvvvvv",
"vvvvvvvvvvvvvvvvvvvvvvvvvvvv2vvvvvvvvvvvvvvvvvvvvvvvvvvvvvvvv .oO&**11vvvvvvvvvvvvvvvvvvvvvvvvvvvvvv"
};
