/* XPM */
static char *_2f9e097d21c42388feb51aebbfe6fccyvW2B8LTbpoqyccF[] = {
/* columns rows colors chars-per-pixel */
"100 100 2 1 ",
"  c None",
". c white",
/* pixels */
"              ........................................................................              ",
"          ................................................................................          ",
"         ..................................................................................         ",
"       ......................................................................................       ",
"      ........................................................................................      ",
"     ..........................................................................................     ",
"    ............................................................................................    ",
"   ...........                                                                        ...........   ",
"   .........                                                                            .........   ",
"  ........                                                                                ........  ",
" ........                                                                                  ........ ",
" ........                                                                                  ........ ",
" .......                                                                                    ....... ",
" .......                                                                                    ........",
".......                                                                                      .......",
".......                                                                                      .......",
".......                                                                                      .......",
".......                                                                                      .......",
".......                                                                                      .......",
".......                                                                                      .......",
".......                                       ........                                       .......",
".......                                    ..............                                    .......",
".......                                   ................                                   .......",
".......                                 ....................                                 .......",
".......                                ......................                                .......",
".......                               ........................                               .......",
".......                              ..........................                              .......",
".......                              .........        .........                              .......",
".......                             .........          .........                             .......",
".......                             ........            ........                             .......",
".......                            ........              ........                            .......",
".......                            .......                .......                            .......",
".......                            .......                .......                            .......",
".......                           .......                  .......                           .......",
".......                           .......                  .......                           .......",
".......                           .......                  .......                           .......",
".......                           .......                  .......                           .......",
".......                            ......                  .......                           .......",
".......                             ....                  .......                            .......",
".......                                                   .......                            .......",
".......                                                  ........                            .......",
".......                                                 ........                             .......",
".......                                               ..........                             .......",
".......                                              ..........                              .......",
".......                                             ..........                               .......",
".......                                            ..........                                .......",
".......                                           ..........                                 .......",
".......                                          ..........                                  .......",
".......                                         ..........                                   .......",
".......                                         .........                                    .......",
".......                                        ........                                      .......",
".......                                        .......                                       .......",
".......                                        .......                                       .......",
".......                                        ......                                        .......",
".......                                        ......                                        .......",
".......                                        ......                                        .......",
".......                                        ......                                        .......",
".......                                        ......                                        .......",
".......                                        ......                                        .......",
".......                                        ......                                        .......",
".......                                        ......                                        .......",
".......                                        ......                                        .......",
".......                                        ......                                        .......",
".......                                        ......                                        .......",
".......                                        ......                                        .......",
".......                                        ......                                        .......",
".......                                         ....                                         .......",
".......                                                                                      .......",
".......                                                                                      .......",
".......                                                                                      .......",
".......                                                                                      .......",
".......                                                                                      .......",
".......                                        ......                                        .......",
".......                                       ........                                       .......",
".......                                       ........                                       .......",
".......                                       ........                                       .......",
".......                                       ........                                       .......",
".......                                       ........                                       .......",
".......                                        ......                                        .......",
".......                                         ....                                         .......",
".......                                                                                      .......",
".......                                                                                      .......",
".......                                                                                      .......",
".......                                                                                      .......",
".......                                                                                      .......",
".......                                                                                      .......",
" .......                                                                                    ........",
" .......                                                                                    ....... ",
" ........                                                                                  ........ ",
" ........                                                                                  ........ ",
"  ........                                                                                ........  ",
"   .........                                                                            .........   ",
"   ...........                                                                        ...........   ",
"    ............................................................................................    ",
"     ..........................................................................................     ",
"      ........................................................................................      ",
"       ......................................................................................       ",
"         ..................................................................................         ",
"          ................................................................................          ",
"             ..........................................................................             "
};
