/* XPM */
static char *result[] = {
/* columns rows colors chars-per-pixel */
"100 100 70 1 ",
"  c #010101",
". c #090603",
"X c #0D0905",
"o c #080708",
"O c #0C0B0B",
"+ c #130C06",
"@ c #130F0B",
"# c #180F08",
"$ c #14100D",
"% c #1A120A",
"& c #1E180F",
"* c #141313",
"= c #181715",
"- c #1A1817",
"; c #191718",
": c #1C1B1B",
"> c #201B17",
", c #201F1E",
"< c #22201E",
"1 c #242323",
"2 c #282726",
"3 c #2A2827",
"4 c #2C2B2B",
"5 c #302F2E",
"6 c #31302F",
"7 c #302F30",
"8 c #2F3030",
"9 c #343333",
"0 c #393736",
"q c #3A3837",
"w c #3C3B3B",
"e c #403F3E",
"r c #42403F",
"t c #444343",
"y c #484746",
"u c #4A4847",
"i c #484748",
"p c #4C4B4B",
"a c #514E4E",
"s c #52504F",
"d c #545352",
"f c #595655",
"g c #5A5857",
"h c #5A5758",
"j c #5D5B5A",
"k c #615E5D",
"l c #62605E",
"z c #656362",
"x c #696665",
"c c #6B6867",
"v c #696768",
"b c #6D6B6A",
"n c #706E6D",
"m c #73706F",
"M c #716F70",
"N c #757372",
"B c #797675",
"V c #7B7977",
"C c #7D7B7A",
"Z c #817E7E",
"A c #82817F",
"S c #848382",
"D c #888685",
"F c #8A8987",
"G c #8D8C8B",
"H c #908E8E",
"J c #939292",
"K c #999796",
"L c #9C9A9A",
"P c None",
/* pixels */
"PPPPPPPPPPPPPPPPPPPPPPPPPPPPPPPPPPPPPPPPPPPPPPPPPPPPPPPPPPPPPPPPPPPPPPPPPPPPPPPPPPPPPPPPPPPPPPPPPPPP",
"PPPPPPPPPPPPPPPPPPPPPPPPPPPPPPPPPPPPPPPPPPPPPPPPPPPPPPPPPPPPPPPPPPPPPPPPPPPPPPPPPPPPPPPPPPPPPPPPPPPP",
"PPPPPPPPPPPPPPPPPPPPPPPPPPPPPPPPPPPPPPPPPPPPPPPPPPPPPPPPPPPPPPPPPPPPPPPPPPPPPPPPPPPPPPPPPPPPPPPPPPPP",
"PPPPPPPPPPPPPPPPPPPPPPPPPPPPPPPPPPPPPPPPPPPPPPPPPpppsPPPPPPPPPPPPPPPPPPPPPPPPPPPPPPPPPPPPPPPPPPPPPPP",
"PPPPPPPPPPPPPPPPPPPPPPPPPPPPPPPPPPPPPP00wwwtuuiuupppppippppadPPPPPPPPPPPPPPPPPPPPPPPPPPPPPPPPPPPPPPP",
"PPPPPPPPPPPPPPPPPPPPPPPPPPPPPPPPPPPPPP90qwtiapppipddddddsitwwePPPPPPPPPPPPPPPPPPPPPPPPPPPPPPPPPPPPPP",
"PPPPPPPPPPPPPPPPPPPPPPPPPPPPPPPPPPPP48tpdhjjdgzzhvCSSSSSBbzp9490PPPPPPPPPPPPPPPPPPPPPPPPPPPPPPPPPPPP",
"PPPPPPPPPPPPPPPPPPPPPPPPPPPPPPPPPPew4qfvbbMzfjnNzBJKKLLKGSBvashsttPPPPPPPPPPPPPPPPPPPPPPPPPPPPPPPPPP",
"PPPPPPPPPPPPPPPPPPPPPPPPPPPPPPPrupssiizBNNnzsszmlmGHHKJHFACbvBZMgdpt9PPPPPPPPPPPPPPPPPPPPPPPPPPPPPPP",
"PPPPPPPPPPPPPPPPPPPPPPPPPPPP9wuflzxbMggvzzxlsujzflACAAACNMMzbFJZzkjatw94PPPPPPPPPPPPPPPPPPPPPPPPPPPP",
"PPPPPPPPPPPPPPPPPPPPPPPPPPPqtpkcnbmCClpgjjklsuagpkVVVVVVbvjdvJJClvNNnvp842PPPPPPPPPPPPPPPPPPPPPPPPPP",
"PPPPPPPPPPPPPPPPPPPPPPPPPw4qydznmvbNBlsdkklkfuratkCVVCVNbzfiMJFvgnSHGSbpte5PPPPPPPPPPPPPPPPPPPPPPPPP",
"PPPPPPPPPPPPPPPPPPPPPPPduq24qujcbxcbncjflzlllurttzAZVCVmvksivGCfdvZFGFBzzgtqPPPPPPPPPPPPPPPPPPPPPPPP",
"PPPPPPPPPPPPPPPPPPPPPPsptr612wdzcxllzmlgxxlllsruubDZVVNbzkdsvZMdpkbBCNbbnxlgy0PPPPPPPPPPPPPPPPPPPPPP",
"PPPPPPPPPPPPPPPPPPPPPtupdgfw25ukxllllmclbbxlljpuubACNBncvldkMBvdaglzzhzbmBNvfr03PPPPPPPPPPPPPPPPPPPP",
"PPPPPPPPPPPPPPPPPPP6rupsjnNjq29ajjkklbczbmnmmlsurcANnmbbvjdvBbldphlkfslmmCAmkae93PPPPPPPPPPPPPPPPPPP",
"PPPPPPPPPPPPPPPPPP5qrpfjlcmca63esfgjkzbMbbMBMkptwkVbcnnbxkanZzfaagjfpjcmmZAnkieq64PPPPPPPPPPPPPPPPPP",
"PPPPPPPPPPPPPPPPP49euagjklbbke49radjlxbbzjzzjpw96fblkcbblsunBjausggppzbnmBBxhuq9009PPPPPPPPPPPPPPPPP",
"PPPPPPPPPPPPPPPPe49eusssskllla030tsjlzzjsittw41,<rdpafkkkuegzauadgdpgxmmbllkgu036ee6PPPPPPPPPPPPPPPP",
"PPPPPPPPPPPPPPPgr99wttttuakkkge55qtafdsiw931:=*O$16550ww053qtttupdudxmmmlgggft539eeq5PPPPPPPPPPPPPPP",
"PPPPPPPPPPPPPPjsttew0qwrusdfhhuq349wrwq94,*Oo.   O*$O*;;;*;1349wttakmmmbksadue5qeeq555PPPPPPPPPPPPPP",
"PPPPPPPPPPPPPPartuatq9wrpdffffaw31131111:Oo              o**==:149sxbbbxksaue57euauq555PPPPPPPPPPPPP",
"PPPPPPPPPPPPPat09usptetufggkkfaq2:-:;=*Oo                 ..oO*;;4plzzkjfsue65qykcza036PPPPPPPPPPPPP",
"PPPPPPPPPPPPutq339ttuupfgkklkdt71:***o                       .oO*:qpjjddspee95ekcNBca555PPPPPPPPPPPP",
"PPPPPPPPPPPPe03<<259euskzxkkfu91;*Oo.                           oO,9yuuuptwq6edxmZZmke5e9PPPPPPPPPPP",
"PPPPPPPPPPPw053544124eakxckat02=Oo                               .O;30wwreeqqalmBBZNku55ePPPPPPPPPPP",
"PPPPPPPPPPPw66qyue94,4eykzht71=Oo                                  .*:49wee0tlmVBZmmxse<55PPPPPPPPPP",
"PPPPPPPPPP459epfkkate44eust5:$o                                      O;,466qscBZmnclkue5eaPPPPPPPPPP",
"PPPPPPPPPq65qrakxckkueeee07,Oo                                       .oO=14efbNmclkgsgkaau6PPPPPPPPP",
"PPPPPPPPPttuaasjxxxkkkue72:Oo                                         ..O;4ykcnxkjhkkbmxa9<=PPPPPPPP",
"PPPPPPPPatalbvkkxxlkkfue4,*o                                         . .o*4tjzzzkkkNVZnku3>*PPPPPPPP",
"PPPPPPPPartkbvxbZVnlkae91*oo                                         ...oO1wgzcnnnBZVmkgt51-PPPPPPPP",
"PPPPPPPPreesfglmZZNbvhw<;Oo  .                                       ....X;6plNSSSCBblfspe3-*PPPPPPP",
"PPPPPPPerersaaflvMbNMk0;$X. . .                                      ....o*1wjBHFCNbzkfdar3-*PPPPPPP",
"PPPPPPPeeearusssfgjkhp4*O. ...                                       .X.Xo@;8pbZCNbvzkgfsr4:=PPPPPPP",
"PPPPPPP93errafgsfgfat7:@X.....                                       XX.XXX=3wfnbbbvlkkgsr4:-*PPPPPP",
"PPPPPP553errsgdggkjsw3*OoXXXX..                                      X.XXXX$<8ikzxzzlggsy91:::PPPPPP",
"PPPPPP223errpsfgjjhpq:$oXXXXX.                                       .XXX+XX=30idggfsaur91;;::PPPPPP",
"PPPPPP3<>5eetpafhdpt7=XoX+++X..                                     ..XX++XX$<34wwewq952<:<11,PPPPPP",
"PPPPPe53<><e0erriewq3*XX+++++X                                       X+X+++XX;:=,1:,,,,114464:$PPPPP",
"PPPPPe63<34433588444,*oo####+..                                      X+X+++XO$$$*-:2880eewww4:OPPPPP",
"PPPPPe91<<<<<1221,11:O.+#%##+..                                      XXX++#XX$$$;19idfjjjdpe4-oPPPPP",
"PPPPPe0,<<59006641,:;XX+%%%#+..                                      X+++##++$$=,9ijvbbbvkht8;oPPPPP",
"PPPPPe046rrrsautw91-$X++%%%#+.                                       XX.X##+#+$-1qsvBBNMvvji4=oPPPPP",
"PPPPPq9qrfklllkgdt2=$XX+#%%%*$o                                      ...X+#+%+$&1wdMBBbvvkji2* PPPPP",
"PPPPPqqrakllxxbxkp4*OoX%<<331:$o                                     OOOX$X+++%=2whbBMvzkjdt2OoPPPPP",
"PPPPP9eagkgkklbnxa4*X@<9wrq93,$                                     o**-<<<&#++$1wdvbzjhjdaw1OoPPPPP",
"PPPPP5eassupdkzlju1*$;5uspe61-$                                      *-<38641<$$19pzkhpppiw8;OoPPPPP",
"PPPP48wetrrtipdaae1;;,40wee6:$o                                     .O*=140ee6<*,9yapyttre94,;OPPPPP",
"PPPPifljhhzbNMvzbj8*;;,149t0:O                                       OO*;360q81<8svNbxzzzlhprq1PPPPP",
"PPPPfvMnvvNASABMBv9*O**-<9tq,O                                       oOO-8621<:1wkCDSBBBNNvjsr4;PPPP",
"PPPPfffjjhjzvzllld4$O***<898,$o                                       .O:902,:-:wfvNbbbxzjsir81;PPPP",
"PPPPfpupauuadffjft3$OO$*1431:*o                                        O:482,*$:9sjzllljairwq81-PPPP",
"PPPPfpupuauupgzzju1o.o@<481,:*O                                       o*:<13:$O:9ahhjjjsptettq1-PPPP",
"PPPPfpyuuuaadkccgr1o  $406111-O                                       o$::,31=.-9isddgdatrtutq1;PPPP",
"PPPPpyrtruuadlbls9;.  &6wq431-o                                      .o*::,341X*8eisaapittuir91*PPPP",
"PPPPtw0wrryuafgae3*o .$<qre93*.                                      .o*:<<503$*80eiyytttiiiw6,$PPPP",
"PPPPe727eewweee73-O ..#-8wr01$                                        .$:<6qq3%$180wwwetpptw01-OPPPP",
"PPPPq4::><1132<,:*Oo.X+&,383*o.                                      ..o:8qrq<$$147999qrtrq94,$OPPPP",
"PPPP4:**#$=;;;===*o ..+#$*-*X.                                       ...*29e6<%X;::,<1148411-*oPPPPP",
"PPPPOOOOO**=;;;;-*Oo.X++X.....                                       .. .-11<&#@*;*****;;;*O$ooPPPPP",
"PPPPPOOO*=;-::,:-*Oo..++++..X..                                      ... .O*$%%%::;;;;;;::;;$O PPPPP",
"PPPPPO$*;:,11211<-$o..+%+%+++X                                       ..... X+%%$,1::,113221,*o PPPPP",
"PPPPP*;:114599993:*..X++%&%%#X                                        . . .X#%%*1127wtiuptt8<OoPPPPP",
"PPPPP;11357qryye03=...++%&%##X.                                      ....X.X%&%&<4qtdkzzzlfi8- PPPPP",
"PPPPP12457euafdae7;o..++%%###X                                       .. ..X#%&%*3qtfznNMnvzdr,oPPPPP",
"PPPPP14470rafkkfu9;o..++%%%#+X.                                       ...XX+#%%&4wpjvnNbvzjaw,oPPPPP",
"PPPPP<3470tdhzcku7= .X++#%##+X                                       .. .XX+%%#*3wpjzvzkjday9-oPPPPP",
"PPPPP1249qrakxnzp5* ooX++%%++.                                       . ..XX+#%%*3qidjgaasaie5* PPPPP",
"PPPPP<4770qyakkht3$  X++#%##+o.                                      o ..XX++##$19tapittiie03*oPPPPP",
"PPPPP=,24550eaar7,Oo.X+X+%#++X                           o     o      ...XXX+$+$:49wq8890098,$ PPPPP",
"PPPPP;4tapuadfat91$o XX++%#+X.                             o     o o . ....X+#+$<qppittiippt9:oPPPPP",
"PPPPP1efvxkvbnlar4* .XX++%++X..                       o  o    o   o  . .oXXX+++*4pzbzjjjkzxki1oPPPPP",
"PPPPP:9idfdhkgae71$o .X+X%#+X.             o       .o  oo  oo  oooooO ....XXX++*4yhkljjfdgjdw,oPPPPP",
"PPPPP;<39qqq953,:*Oo..XX+$++X.              o  o   o   oo ooooooo oo.. ....X+++*4wuddfdspuur8*oPPPPP",
"PPPPPO*=:13432,>:;@. .XX+%++X..         o   o  ooo ooooooooooooOOoOoO....X.X+++*9wrppadpittq1$oPPPPP",
"PPPPPO*;140e00e54<$o X+X+#++X.           o  ooooo ooooooOoOoOOOOOoOOOO.....X+++-9q9wwtuyrwq8,$ PPPPP",
"PPPPP*:4wudkkdsau9;  .XX##+++..  oo o o o oooooooOOOooOooOOOOOOOO$OOOo ......++-494449qq984,*o PPPPP",
"PPPPP=1wphkcllkkdw:o..XX+#+XX.     o oooooooOOOOOOOOOOOO$OOO*O******OO .....++X*4414499883,:*o.PPPPP",
"PPPPP:4ragkllkkksw:  .XX#%#XX.  o o oo oooooOOOOOOOO*O***************O ... ..++*449titwwq84,*O PPPPP",
"PPPPP:7tpasfgksay7;o XXX+#+XX.  ooooooooOOOOO*OO*******;;;;;;;;;;::--Ooo. ..X+.*4quzvjditw981OoPPPPP",
"PPPPP;39weerrrrr91Oo .XX##+X.. ooOooooOOOOO*O******;;;;;;:;;:::::::::-Oo....X+o*14tkkditww981OoPPPPP",
"PPPPP:0iuyuakkgur7;o..Xo++Xo.oooOOOOOOOOO********:;;;:::::111:1111111,:;=$@X++oO:8svvjdpddjjp1oPPPPP",
"PPPPP2pvxzcnZAAcjy1   ....o ooooOOOOOO******;;:;:::::1:111111111112233241<-*&$O*4ibGGSNMMCSSb0OPPPPP",
"PPPPP3ujllxcZZnxft,o   o oooooOOO*OO***;*;:::::1:1111141411881848884888884431:**4ekZANMMbbNMj8oPPPPP",
"PPPPP1qpdghjlllgaq-o    o oOOOOOO*****;:;::::::111411888888888888888888909q881;;40pzvvkjddhde1oPPPPP",
"PPPPP2qudhhhgkkguq-.   .ooOOOO****;;;;:::11111111888888888888w889qwqwwwwwwww881:40ijkkzjdadaw:oPPPPP",
"PPPPP2qudkjfssffu9-o o.ooOOO**O*;;;::::1111188888888w8wwwwwwwwtwewtwwtwrrrtew81:19eshkkhaadpw,oPPPPP",
"PPPPP<7tsjlsaagst8-   OooOO*****;:::1111418888888ww9wwwwwwtwttttttiitiiitiiiw81:48wpdjjfpppi8;oPPPPP",
"PPPPP:2quffpurrrq3*o  ooOO****;:::111114888888wwwwwwttwttttitiiiiiipiiiipppitw1:18wiaddppitw4*oPPPPP",
"PPPPP*,4wtuirreq8,$  OoOOO;*;:::111114488888wwwwwwttiiiiiipiippipppppddpdddpiw81449wiiytttw81*oPPPPP",
"PPPPP*;,36090633<-Oo  oO*;;;:::11111888888wwwwwtiiiiiiiippppppddddddddddhdddiw8:4470wewwww08,;OPPPPP",
"PPPPP**$:,,,,-::**o  oOO**;::,11188888w8wwwttttiipppipdpdpddddddddjdjjdjhhjdae8,221455445531<<;PPPPP",
",-=**OOoOO$O$$*OO*OooOO$*;::,1111448w888wwwtiiiiiiiipppppppppaddddddddddhdddiw4121;;;;;;;;-,131=--:=",
"1,1<,11:-,111221111-:,111:::**O::118888841111:11111::111144111,;:11111::;*O;:128788842112,--,<<1:::-",
"444559w94488899qqwq448888821:;;,888wtiipw448488888w848888999ww0448888811:;;,480wetippwqqwq445996811:",
"9qqwephaeew848wtidsw0etttq41:;:28weisdjvd44889wetphaeew888wtiddw8tttt981:::18weiddjvzdtidpw9eiitw81:",
"wtupdzBMhdp848eidzhttpsdsiq1:;:29eisfjvBk880wtipdzNMhdp848eidzhttppddi84:*:19tisfjzBNjidzjttppdpt91:",
"iadgzMSCzkhw89tsjzhttsjkkht4:;;4wepsfjvBk89eipdhzMSCzkdw88iphzhiidjzzdw8:*:49tidfjvCBjsjzgttdjllft8:",
"pdjkzMZNkkdw8wishjdetskvvzp8:;:80tidhkvBk80tphhkzMZNkkdw8widhjdetdjvvzp8:::8wtidjjvNNjdgjdttdjvvzs8:"
};
