/* XPM */
static char *result[] = {
/* columns rows colors chars-per-pixel */
"100 100 65 1 ",
"  c #010101",
". c #080707",
"X c #090807",
"o c #080708",
"O c #0B0B0B",
"+ c #100F0F",
"@ c #10100F",
"# c #0F1010",
"$ c #141413",
"% c #181717",
"& c #191817",
"* c #191718",
"= c #1C1B1B",
"- c #201F1F",
"; c #21201F",
": c #242323",
"> c #282726",
", c #292827",
"< c #2C2B2B",
"1 c #302F2E",
"2 c #31302F",
"3 c #302F30",
"4 c #343333",
"5 c #383736",
"6 c #3A3837",
"7 c #3C3B3B",
"8 c #403F3E",
"9 c #42403F",
"0 c #444343",
"q c #484746",
"w c #4A4847",
"e c #484748",
"r c #4D4B4B",
"t c #514E4E",
"y c #52504F",
"u c #545352",
"i c #595655",
"p c #5A5857",
"a c #5A5758",
"s c #5C5B5A",
"d c #615E5D",
"f c #62605E",
"g c #656362",
"h c #696665",
"j c #6B6867",
"k c #696768",
"l c #6D6B6A",
"z c #706E6D",
"x c #73706F",
"c c #716F70",
"v c #757372",
"b c #797675",
"n c #7B7977",
"m c #7D7B7A",
"M c #817E7E",
"N c #82817F",
"B c #848382",
"V c #888685",
"C c #8A8987",
"Z c #8D8C8B",
"A c #908E8E",
"S c #939292",
"D c #999796",
"F c #9C9A9A",
"G c None",
/* pixels */
"GGGGGGGGGGGGGGGGGGGGGGGGGGGGGGGGGGGGGGGGGGGGGGGGGGGGGGGGGGGGGGGGGGGGGGGGGGGGGGGGGGGGGGGGGGGGGGGGGGGG",
"GGGGGGGGGGGGGGGGGGGGGGGGGGGGGGGGGGGGGGGGGGGGGGGGGGGGGGGGGGGGGGGGGGGGGGGGGGGGGGGGGGGGGGGGGGGGGGGGGGGG",
"GGGGGGGGGGGGGGGGGGGGGGGGGGGGGGGGGGGGGGGGGGGGGGGGGGGGGGGGGGGGGGGGGGGGGGGGGGGGGGGGGGGGGGGGGGGGGGGGGGGG",
"GGGGGGGGGGGGGGGGGGGGGGGGGGGGGGGGGGGGGGGGGGGGGGGGGGGGGGGGGGGGGGGGGGGGGGGGGGGGGGGGGGGGGGGGGGGGGGGGGGGG",
"GGGGGGGGGGGGGGGGGGGGGGGGGGGGGGGGGGGGGGGGGGGGGGGGGGGGGGGGGGGGGGGGGGGGGGGGGGGGGGGGGGGGGGGGGGGGGGGGGGGG",
"GGGGGGGGGGGGGGGGGGGGGGGGGGGGGGGGGGGGGG55570etrrwqruuuuuute0878GGGGGGGGGGGGGGGGGGGGGGGGGGGGGGGGGGGGGG",
"GGGGGGGGGGGGGGGGGGGGGGGGGGGGGGGGGGGG<<0risssiphhskmBBBBNblfr4<45GGGGGGGGGGGGGGGGGGGGGGGGGGGGGGGGGGGG",
"GGGGGGGGGGGGGGGGGGGGGGGGGGGGGGGGGG97<5ihjllhuslvgvSFFFFDABmgyyat0qGGGGGGGGGGGGGGGGGGGGGGGGGGGGGGGGGG",
"GGGGGGGGGGGGGGGGGGGGGGGGGGGGGGG8wwuyeegbvccgtyhzfxZZADDAVNmckbMcsyr94GGGGGGGGGGGGGGGGGGGGGGGGGGGGGGG",
"GGGGGGGGGGGGGGGGGGGGGGGGGGGG57wifghllsskgghfyrphifNNNNNnvclglCSNhssy0731GGGGGGGGGGGGGGGGGGGGGGGGGGGG",
"GGGGGGGGGGGGGGGGGGGGGGGGGGG70rsjzlxmmfripsffyqtpwdnbbnnnlhsulSSmghvblht4<>GGGGGGGGGGGGGGGGGGGGGGGGGG",
"GGGGGGGGGGGGGGGGGGGGGGGGG7<5qyhzcjlvbfyidddfiw9rqdmnnmnvlhiwlSBkslBAABkeq81GGGGGGGGGGGGGGGGGGGGGGGGG",
"GGGGGGGGGGGGGGGGGGGGGGGuw6,<5qdjjjjlzjpufhffdw990hNMnmnxkdyekZbauhmCZCvggi07GGGGGGGGGGGGGGGGGGGGGGGG",
"GGGGGGGGGGGGGGGGGGGGGGyr091:>7yhlhffhxhijjfffyqwwhVMnnvlgdutkBcurdlbnvllzhdiw4GGGGGGGGGGGGGGGGGGGGGG",
"GGGGGGGGGGGGGGGGGGGGGwwrysu9>1wphffffxjdjljffsrwqjNMvbzjkfuscnlursghgshzzvvhu05,GGGGGGGGGGGGGGGGGGGG",
"GGGGGGGGGGGGGGGGGGGG9wruslvs5,5tssdsfjjhlzzxxfyq9jNxzxllksulbldutidsitfxxMNxdt84,GGGGGGGGGGGGGGGGGGG",
"GGGGGGGGGGGGGGGGGG289ripfjxjt2,8ypppshlcllcvzdr08fnljzzjjdtzMgitrpsprdjxxMMzdw862,GGGGGGGGGGGGGGGGGG",
"GGGGGGGGGGGGGGGGG<49wtpsdflld9140yusfhllgdggdr742ulfdjjzfywzbstwypprrglzxnvhaw54555GGGGGGGGGGGGGGGGG",
"GGGGGGGGGGGGGGGG0<49wyyyidffft5<40tpffgsteq06<>=;9urtpdddw8pgtwtupurihzxjffddw5,4882GGGGGGGGGGGGGGGG",
"GGGGGGGGGGGGGGGd0447900q9ydddp9,16qyiuyw74>:=%$O@:22148751,6000wruwuhxxxfdudu01,47871GGGGGGGGGGGGGGG",
"GGGGGGGGGGGGGGfu00975679qyuisiw5,1477774<=$OX o  O$O@$**%%*:,<4790tdxxxjdyyuw81588522<GGGGGGGGGGGGGG",
"GGGGGGGGGGGGGGy90rr05579ruiiiit7>::>>>:-*#X             .X@%%%=><5yhlxlhdiy98218wyw5111GGGGGGGGGGGGG",
"GGGGGGGGGGGGGyq55qyr989rippddit7>=%=*%$OX                  XX+$%=<rdhffsiyw8426qdhft5<2GGGGGGGGGGGGG",
"GGGGGGGGGGGGtq5,,49qwrrupddddu03:=%#$X                        .O@=5tspuytw88228djbbjr111GGGGGGGGGGGG",
"GGGGGGGGGGGG96,;;>148wyddhddiw5:=$$.                            X$=50rwww97528yjxnMxd8<88GGGGGGGGGGG",
"GGGGGGGGGGG851,1<<:><8tdjldt04:%Oo                               XO*>57799877thxvMMbdw148GGGGGGGGGGG",
"GGGGGGGGGGG72270q84,-<8qdga91:%X                                    @=<479759dxnnnvxft4,<1GGGGGGGGGG",
"GGGGGGGGGG<148rsddyq8<<8wtq3=$X                                      X%:<226yjbMxzjfdt818tGGGGGGGGGG",
"GGGGGGGGG74159tshhfdt88885<-#.                                        o$&:<8plvxjgdpipdttw2GGGGGGGGG",
"GGGGGGGGGq0wrtysfjffdiw83>=#.                                           O*<qshzhdpsddjxht4;%GGGGGGGG",
"GGGGGGGGyqrfzjdfjhffddw8<-#o                                            o$,qdgggdpdvnMzdq,-$GGGGGGGG",
"GGGGGGGGy9qdjjhlMMjfdy82;$O                                              O-7igjzzvbMnxdpq1-&GGGGGGGG",
"GGGGGGGG989iipfzNNvlka7-*O                                               X%3rgvBBMmblfiur8;-@GGGGGGG",
"GGGGGGG09899ttidkllvcd5%O                                                 $:6smZCmvjhsiuy9<&$GGGGGGG",
"GGGGGGG8889i9iyiissfar<$X                                                 X*3rlNmvlkgdsiy91=$GGGGGGG",
"GGGGGGG81899yiiyupar03-Oo                                                  %>7slcklkfddpt9,--$GGGGGG",
"GGGGGGG1,899ypiisfst7,%X                                                   +:<wfghhfdpiye4>&==GGGGGG",
"GGGGGG,>,899ryipssar5=O                                                     $>5wuiiiytw82:&&==GGGGGG",
"GGGGGG,;>,889ryuuur03%.                                                     X=,<7787741>;=->>=GGGGGG",
"GGGGG82,;;,26999e075,$                                                       %=*-:=----:;>12<=#GGGGG",
"GGGGG84,;;11,,1211<<-#                                                       O$O$%=>335777771&OGGGGG",
"GGGGG85;-;;;;;,,;-::=o                                                        X$%>50yusddur01%oGGGGG",
"GGGGG84;;;146422<:-=%o                                                        X%-4eakcclkdue3%oGGGGG",
"GGGGG8414999yyr984;&#                                                         X%:5ujbbcclgse<$oGGGGG",
"GGGGG5559idfffddu0>%O                                                          $:7ucbblkggae>#oGGGGG",
"GGGGG569tdffhhhjgr,$X                                                         .$:7scvckddsu0># GGGGG",
"GGGGG58tpdpddfzjgt<+                                                           $:7ukcgsssur7-#oGGGGG",
"GGGGG<8tyywrudgfsw>O                                                           O:4rdsurtre0<=O GGGGG",
"GGGG,3709870rtyyr8-o                                                           X-4etrq00074,-$#GGGGG",
"GGGGraddaaglxckgls3o                                                           O3yjvlgghggat06:GGGGG",
"GGGGakcckkxNBMbvmj5X                                                           $5dmBNmnvbchst8<$GGGG",
"GGGGuiissssgkhddgu<X                                                           %5ukccljjgste84:%GGGG",
"GGGGiwwrtrwtyupsiq:X                                                           %4usffffsy09762>%GGGG",
"GGGGarewwrwwtafgsw:.                                                           %5rassdsyr09094>&GGGG",
"GGGGirqe9tttuflhp9:X                                                           $4euuuiut090wq6>&GGGG",
"GGGGrq8q9wwtuflft5*                                                            $30erttrw90ww94:$GGGG",
"GGGGq658999wtipt8,$                                                            $<58eeq00qewq71=@GGGG",
"GGGG81>158899982,*O                                                            O:3577790ee084:%OGGGG",
"GGGG6>==;;;;,;;-*%O                                                            O:<3345670063<-#OGGGG",
"GGGG<=#$+%%%-&&&%%O                                                            X%==-=:><11:-=#OGGGGG",
"GGGGOXOO+@$$%&&&%$X                                                             #%%$%$$%%%$$#XXGGGGG",
"GGGGG.O#$$&--&--*%#                                                            o%-%*%%%%=&&%#O GGGGG",
"GGGGG++$&--::>;;-*$                                                            O-:==-:>>,,:=$XXGGGGG",
"GGGGG$%--:,12551,-$                                                            O-::370ewre92;#XGGGGG",
"GGGGG*::>14889085,%.                                                           O:<5qusgkgdie4%.GGGGG",
"GGGGG:><1380taaw83%.                                                           #>50ihcxxllgu7-.GGGGG",
"GGGGG:,<159yiddaq3%                                                            #,7rsklvlkgst7= GGGGG",
"GGGGG:,<15qypgjdw1%.                                                           #>7rsgkgdsute5=.GGGGG",
"GGGGG:><459tdjldt1$.                                                           #>7eussuturw7<% GGGGG",
"GGGGG;,34489ydfd0>#                                                        .   #:40rre08qw06>$ GGGGG",
"GGGGG%:>11158wt83-O                                         .      o           o&<476334554<=$ GGGGG",
"GGGGG*<9twwtydy85;+.                                    .  .  .  X  o X . . .  O-6eye00eewre5=XGGGGG",
"GGGGG:7ihggkzzdy0<*                                o .  . .   .   o  .  . .    #<rgjgsdsfghde:oGGGGG",
"GGGGG-4wiiuidut83:$X                         .        .  . .. . Xooo...........#<qsfdsspuasu7-.GGGGG",
"GGGGG%-<46668<,-*%O                      . . .  o o  . . .........oo....oo..o o#<7wuuuuywww8<% GGGGG",
"GGGGG+#%=:>,,;--=%O                  .     o  .   oX.............ooOooOOXOXXooo#370wryyteqq6:$.GGGGG",
"GGGGGO$%:<585581<-#             .       . ..o ooXooo.o.ooO.OXOOOOOOOO#OO#X#OXXo%354770q08761=O GGGGG",
"GGGGG$=<7rudduyte4=               . . .. o .oooooOoXOOOOOO#OOOO#O###O########OO&34>1146643<-%X.GGGGG",
"GGGGG%>5rpdjffddu8=        oo   . . .  ...oOoooOOoOXOOOO#############$####$###O#<1:,11331<:%$X GGGGG",
"GGGGG=<8tpddfdddu7=            X . .......OoOOO#O###########$$$$$$%$%$%%%$&%##O%<340e08763>:%O GGGGG",
"GGGGG;39wtyippyiw4%       o   . X....X.XXXO#######$$$$$$$$$$$================##$<5rgksue0753=#oGGGGG",
"GGGGG%>4888899994:+         o..oXXXXXXOX#OO#####$$$$$$=========:=====:===:====#$;<0dsue07753:#oGGGGG",
"GGGGG=4wqqwyddp903%     X oo....XXOO#X######$$%$==$======::::=:::::::::::::::=$$=4ykksuuuusse:oGGGGG",
"GGGGG>tghhlxMNMzsw:.  X  X X.oooOOO######$#%$%======::::::::::::::::<<<<<3<<:=$$<elCZMvccmBBc6OGGGGG",
"GGGGG,wdddgjMMzfi0;.    . ..oXOO#####$$=%&%=*====:::::::::<<<<<<33<333333333<:$=<0gmMbckklvvs3OGGGGG",
"GGGGG:6tydadfjfpw5&.  . ...oXOO####$$$=====---::::>:<<3333<333333333433434433:==>4egkkgsuuau7:oGGGGG",
"GGGGG,8ryidyppdpt5-.  . ..OO#####$$$====--::::>><3333333334444447477777777773<:=<4eaddgsutir7=oGGGGG",
"GGGGG;5wyddiyyiiq4&   ..oXO#####$======:::::<<<<333344777777777770777070700073:=<40yaddattur7=oGGGGG",
"GGGGG;30yddytryy01&.  .XOO###$%%=====::::<<333343477777777077000e0eeeeeeeeee74::<47raasirrr04=oGGGGG",
"GGGGG=>6wiirt9997,#   .XO##$$%%===:::>:<3<334477777770700e0eeeeeeeeeeeeerere07:=:35etuurre07>$oGGGGG",
"GGGGG%=<79w998881-#  ..O###$$===::::<<<3333447770700eeeeeeeeerreeerruruuuuyye7>:>338eew00084:$oGGGGG",
"GGGGG$%:<2658,,,;%O. ..O##%&==-::::<<333447777700eeeeeeereurrruuuuuuuuuuuauue73=<<358777775<;%#GGGGG",
"GGGGG$@$&=;;===&$#O  XO##$&=--:::<<33444777700eeerrreeuryyyuuuuuuuusususassuy8<::<:<1<<,<1,;><:GGGGG",
"-&%@+XX.XOOOOO#O#OO. XO#$$==-::><3334477700eeeeerrruuuuuuuuuuusussssssssddday03:::%$$%%%%%%-<6>%$&=@",
":-:--:;==;::>,>:::-%=-:::;===##*=::<3333:::::==:::====:::<<::::==::=:::=$##$=:>3<333<>::>-%=--:;;==&",
",1112474<<2<1464776,,14433::-**-<<770eee0<<3<3333474<3333444784,<3433<<:-%%:>34700err75775<<1444<::=",
"45778rau7773<478rut7480005<:=*=:350eyusku<<334780ray8773<478eur747ee04<:===:370eyuskkr0eur7480e043:=",
"70wtagvcsur4<38eudae0ryuye5:=%=>40eysshbf<3480erugvcsur4<38eugse0eruue4>===<47eysskvvseugs00rruye4:=",
"eryagcBmggu7340ysga00yadfu0<=%=<59euuskmg348eruagcBmggu7<4ersgaeeusggue<=$=<40euuskmmsyifs0eupddp03=",
"rissgcMvdsu735euadu80udkkgr4-%=<70eusskvs350rusdgcMvdsu737euasu87uskkge4===<70eusskvvsussu80udklgr4="
};
