/* XPM */
static char *result[] = {
/* columns rows colors chars-per-pixel */
"30 30 4 1 ",
"  c #EC614A",
". c #F4B03C",
"X c #FFF6AE",
"o c None",
/* pixels */
"oooooooooooooooooooooooooooooo",
"oooooooooooooooooooooooooooooo",
"oooooooooooooooooooooooooooooo",
"oooooooooooooooooooooooooooooo",
"oooooooooooooooooooooooooooooo",
"oooooooooooooooooooooooooooooo",
"oooooooooooooooooooooooooooooo",
"oooooooooooooooooooooooooooooo",
"oooooooooooooo  oooooooooooooo",
"oooooooooooo  ..  oooooooooooo",
"ooooooooooo  .XX.  ooooooooooo",
"oooooooooo  .XXXX.  oooooooooo",
"oooooooooo  .XXXX.  oooooooooo",
"ooooooooooo .XXXX. ooooooooooo",
"ooooooooooo  .XX.  ooooooooooo",
"oooooooooooo  ..  oooooooooooo",
"ooooooooooooo .  ooooooooooooo",
"ooooooooooooo   oooooooooooooo",
"oooooooooooooo  oooooooooooooo",
"oooooooooooooo ooooooooooooooo",
"oooooooooooooooooooooooooooooo",
"oooooooooooooooooooooooooooooo",
"ooooooooooooo oooo ooooooooooo",
"oooooooooooooo oo oooooooooooo",
"oooooooooooooooo ooooooooooooo",
"oooooooooooooooooooooooooooooo",
"oooooooooooooooooooooooooooooo",
"oooooooooooooooooooooooooooooo",
"oooooooooooooooooooooooooooooo",
"oooooooooooooooooooooooooooooo"
};
