/* XPM */
static char *result[] = {
/* columns rows colors chars-per-pixel */
"30 30 4 1 ",
"  c #EC614A",
". c #F4B03C",
"X c #FFF6AE",
"o c None",
/* pixels */
"oooooooooooooooooooooooooooooo",
"oooooooooooooooooooooooooooooo",
"oooooooooooooooooooooooooooooo",
"oooooooooooooooooooooooooooooo",
"oooooooooooooooooooooooooooooo",
"oooooooooooooooooooooooooooooo",
"oooooooooooooooooooooooooooooo",
"oooooooooooooooooooooooooooooo",
"oooooooooooooo  oooooooooooooo",
"ooooooooooooo .. ooooooooooooo",
"oooooooooooo .XX. oooooooooooo",
"ooooooooooo .XXXX. ooooooooooo",
"ooooooooooo .XXXX. ooooooooooo",
"ooooooooooo .XXXX. ooooooooooo",
"ooooooooooo .XXXX. ooooooooooo",
"ooooooooooo .XXXX. ooooooooooo",
"ooooooooooo .XX.. oooooooooooo",
"oooooooooooo .X.  oooooooooooo",
"oooooooooooo ...  oooooooooooo",
"oooooooooooo  .   oooooooooooo",
"ooooooooooooo    ooooooooooooo",
"oooooooooooooo   ooooooooooooo",
"ooooooooooooooo oooooooooooooo",
"oooooooooooooooooooooooooooooo",
"oooooooooooooooooooooooooooooo",
"oooooooooooooooooooooooooooooo",
"oooooooooooooooooooooooooooooo",
"oooooooooooooooooooooooooooooo",
"oooooooooooooooooooooooooooooo",
"oooooooooooooooooooooooooooooo"
};
