/* XPM */
static char *result[] = {
/* columns rows colors chars-per-pixel */
"30 30 4 1 ",
"  c #EC614A",
". c #F4B03C",
"X c #FFF6AE",
"o c None",
/* pixels */
"oooooooooooooooooooooooooooooo",
"oooooooooooooooooooooooooooooo",
"oooooooooooooooooooooooooooooo",
"oooooooooooooooooooooooooooooo",
"oooooooooooooooooooooooooooooo",
"oooooooooooooooooooooooooooooo",
"oooooooooooooooooooooooooooooo",
"oooooooooooooooooooooooooooooo",
"oooooooooooooo  oooooooooooooo",
"ooooooooooooo .. ooooooooooooo",
"oooooooooooo .XX. oooooooooooo",
"ooooooooooo .XXXX. ooooooooooo",
"ooooooooooo .XXXX. ooooooooooo",
"ooooooooooo .XXXX. ooooooooooo",
"ooooooooooo .XXXX. ooooooooooo",
"ooooooooooo .XXX. oooooooooooo",
"oooooooooooo .X.  oooooooooooo",
"oooooooooooo .X. ooooooooooooo",
"ooooooooooooo .  ooooooooooooo",
"oooooooooooooo  oooooooooooooo",
"ooooooooooooooo oo ooooooooooo",
"ooooooooooooo ooo  ooooooooooo",
"oooooooooooooo o  oooooooooooo",
"oooooooooooooooo ooooooooooooo",
"oooooooooooooooooooooooooooooo",
"oooooooooooooooooooooooooooooo",
"oooooooooooooooooooooooooooooo",
"oooooooooooooooooooooooooooooo",
"oooooooooooooooooooooooooooooo",
"oooooooooooooooooooooooooooooo"
};
